<svg width="936" height="936" viewBox="0 0 936 936" fill="none" xmlns="http://www.w3.org/2000/svg">
<path d="M737.124 598.281C834.654 483.901 844.974 319.901 763.534 193.371C631.974 -11.0293 323.484 -17.2293 182.314 179.971C90.9336 307.621 99.7136 478.021 199.124 598.281H180.624C173.774 598.281 135.144 525.911 130.664 515.241C26.5336 267.751 220.334 11.2206 482.674 20.2306C734.764 28.8806 906.994 285.021 804.584 520.241C800.224 530.271 762.824 598.281 756.624 598.281H737.124Z" fill="white"/>
<path d="M328.041 229.317C328.022 228.992 330.491 227.626 327.583 227.894C318.755 234.932 294.577 264.376 291.888 237.979C351.484 181.412 416.095 128.599 477.694 73.5802C482.671 71.7847 485.95 76.2351 489.611 78.9379C512.292 95.6317 533.925 120.472 556.396 138.102C557.883 139.019 557.807 135.113 557.807 134.769V112.326H585.455V164.375C585.455 167.679 630.131 201.21 631.199 204.046C631.532 204.935 623.448 220.807 620.75 217.856L480.115 93.4543L343.686 212.527C337.899 229.374 352.161 249.257 328.041 253.679C327.65 245.619 328.575 237.377 328.041 229.326V229.317Z" fill="white"/>
<path d="M680.336 112.01C680.336 134.098 662.436 151.998 640.349 151.998C618.261 151.998 600.361 134.098 600.361 112.01C600.361 89.9233 618.261 72.0232 640.349 72.0232C662.436 72.0232 680.336 89.9233 680.336 112.01ZM668.65 111.887C668.65 96.1849 655.927 83.4617 640.225 83.4617C624.523 83.4617 611.8 96.1849 611.8 111.887C611.8 127.589 624.523 140.312 640.225 140.312C655.927 140.312 668.65 127.589 668.65 111.887Z" fill="white"/>
<path d="M718.039 320.515C718.039 343.55 699.628 362.216 676.909 362.216C654.19 362.216 635.779 343.55 635.779 320.515C635.779 297.481 654.19 278.814 676.909 278.814C699.628 278.814 718.039 297.481 718.039 320.515ZM707.407 320.515C707.407 303.449 693.76 289.613 676.928 289.613C660.096 289.613 646.449 303.449 646.449 320.515C646.449 337.582 660.096 351.418 676.928 351.418C693.76 351.418 707.407 337.582 707.407 320.515Z" fill="white"/>
<path d="M328.447 130.862C328.447 146.951 315.404 159.995 299.314 159.995C283.224 159.995 270.18 146.951 270.18 130.862C270.18 114.772 283.224 101.728 299.314 101.728C315.404 101.728 328.447 114.772 328.447 130.862ZM317.562 130.948C317.562 120.902 309.416 112.757 299.371 112.757C289.326 112.757 281.18 120.902 281.18 130.948C281.18 140.993 289.326 149.138 299.371 149.138C309.416 149.138 317.562 140.993 317.562 130.948Z" fill="white"/>
<path d="M476.845 235.69H442.699V271.01H476.845V235.69Z" fill="white"/>
<path d="M476.807 192.733H442.699V228.053H476.807V192.733Z" fill="white"/>
<path d="M517.158 235.69V270.055C517.158 270.179 514.895 271.01 514.771 271.01H485.178C485.073 271.01 483.747 269.683 483.747 269.578V235.69H517.158Z" fill="white"/>
<path d="M517.158 228.053H483.747V194.165C483.747 194.06 485.073 192.733 485.178 192.733H514.771C514.943 192.733 517.158 194.947 517.158 195.119V228.053Z" fill="white"/>
<path d="M409.793 92.5493C407.8 94.4635 399.666 94.5305 394.769 99.9189C390.641 104.465 389.065 117.912 385.781 117.721C383.067 117.558 381.292 105.623 378.673 101.891C374.63 96.1288 361.58 93.2001 361.58 90.3958C361.58 86.9886 373.215 85.4668 377.287 81.3322C381.359 77.1975 383.01 64.1906 385.781 64.0279C389.141 63.827 390.214 76.8147 394.446 81.2077C398.11 85.017 414.747 87.7925 409.793 92.5589V92.5493Z" fill="white"/>
<path d="M567.801 72.023C575.688 72.023 582.082 65.6291 582.082 57.7419C582.082 49.8546 575.688 43.4607 567.801 43.4607C559.913 43.4607 553.52 49.8546 553.52 57.7419C553.52 65.6291 559.913 72.023 567.801 72.023Z" fill="white"/>
<path d="M238.166 260.252C232.257 267.153 229.718 248.023 228.381 245.255C222.653 233.408 204.402 231.261 204.01 227.528C203.542 223.022 219.331 220.474 224.591 214.717C229.393 209.457 232.247 194.069 233.316 193.64C239.483 191.177 240.533 209.314 246.003 215.223C252.504 222.24 260.876 220.808 265.085 223.815C273.648 229.934 255.1 233.017 251.11 235.508C238.137 243.613 241.85 255.946 238.166 260.252Z" fill="white"/>
<path d="M266.994 262.466C267.433 262.906 267.853 270.791 270.86 274.351C274.42 278.58 280.807 278.341 282.344 280.05C286.305 284.47 275.862 284.833 272.254 288.136C267.643 292.355 268.187 303.81 263.767 301.595C263.099 301.261 261.514 291.486 258.011 288.145C254.918 285.195 247.071 284.604 246.966 281.959C246.842 278.981 255.328 278.093 257.982 275.764C261.686 272.528 262.889 258.333 266.994 262.447V262.466Z" fill="white"/>
<path d="M645.49 407.916C652.747 407.916 658.629 402.289 658.629 395.349C658.629 388.408 652.747 382.781 645.49 382.781C638.234 382.781 632.352 388.408 632.352 395.349C632.352 402.289 638.234 407.916 645.49 407.916Z" fill="white"/>
<path d="M448.428 495.331C446.872 498.29 417.117 506.939 410.31 501.488C405.07 497.288 386.255 451.19 386.016 442.981C385.243 415.946 412.764 378.001 441.249 377.906C448.323 377.877 458.957 388.788 457.544 394.134C457.076 395.881 441.01 411.889 438.376 414.18C430.252 421.244 409.614 431.879 405.003 437.129C403.323 439.038 401.69 441.635 401.633 444.269C401.27 461.49 450.07 492.238 448.428 495.34V495.331Z" fill="white"/>
<path d="M612.617 489.613H666.552C672.318 489.613 672.299 503.932 667.507 503.932H574.433V489.613H597.343V324.945L568.82 370.775C580.418 379.166 587.482 384.97 582.242 400.52C580.848 404.644 576.209 408.854 575.426 411.842C570.949 428.872 563.092 489.088 563.913 506.347C564.066 509.497 567.951 523.215 566.863 524.456C561.899 530.117 522.617 523.988 521.052 519.559C519.925 516.39 544.449 465.471 541.032 455.257C537.786 462.311 514.293 515.301 510.093 515.425C508.108 515.483 489.502 505.927 489.464 503.464C489.426 501.316 511.601 473.471 511.439 466.712C506.657 471.982 484.013 497.689 478.477 498.233C475.852 498.491 443.777 475.361 442.737 473.375C441.82 471.628 463.06 459.591 464.692 456.698C466.458 455.085 483.966 437.349 482.811 436.165C480.882 434.17 448.817 464.612 435.491 464.774C431.444 464.822 415.607 448.852 416.418 446.637C417.172 444.585 435.023 439.573 438.928 437.616C457.705 428.165 476.148 404.911 492.882 391.337C497.139 387.881 513.95 378.908 515.028 377.686C516.756 375.748 518.169 367.396 520.202 364.236C528.192 351.798 543.036 353.21 553.451 361.706L657.187 185.249C666.609 179.683 673.549 186.318 671.382 196.589C668.032 212.455 612.655 288.632 612.655 296.316V489.623L612.617 489.613ZM527.219 372.293L522.302 380.731L567.245 406.887L572.161 398.449L527.219 372.293Z" fill="white"/>
<path d="M527.213 372.295L522.301 380.736L567.249 406.896L572.161 398.456L527.213 372.295Z" fill="white"/>
<path d="M379.696 489.613C380.918 488.668 368.728 465.91 367.506 461.233C363.63 446.494 364.375 431.85 368.938 417.273C372.098 407.183 385.195 391.7 385.471 384.073C385.729 377.008 379.715 372.426 378.846 365.897C378.226 361.248 380.527 354.871 380.326 353.564C380.126 352.256 375.735 349.506 374.599 346.27C373.625 343.512 373.844 334.538 372.871 333.202C372.489 332.667 367.067 330.92 363.659 324.754C360.251 318.587 360.241 303.199 348.194 309.661C345.512 311.103 347.545 352.838 332.501 359.826C317.533 366.775 328.902 345.029 329.771 340.877C331.737 331.398 331.202 316.382 326.124 307.886C321.637 300.383 314.201 312.019 304.531 308.468C298.326 306.187 291.014 289.882 298.25 283.591C301.505 280.756 369.539 247.059 373.749 246.448C385.958 244.663 410.625 252.204 415.856 263.974C423.169 280.422 396.554 276.508 402.358 288.928C403.332 291.018 408.554 292.937 411.045 296.478C414.444 301.299 417.011 311.8 418.749 314.463C423.13 321.174 442.757 336.572 449.878 344.514C453.2 348.218 474.421 373.782 474.096 376.359C474.03 376.865 467.557 383.652 467.051 383.643C464.942 383.576 445.63 355.091 441.287 350.242C437.001 345.459 414.319 322.682 409.976 321.355C407.408 320.573 385.882 329.021 384.479 330.682C382.77 332.715 383.219 341.86 384.956 343.569C386.502 345.096 390.092 344.457 392.373 345.698C402.416 351.158 388.65 356.905 388.316 362.25C388.077 366.011 395.905 375.004 395.905 383.185C395.905 399.804 375.229 414.954 375.324 442.217C375.372 456.317 390.97 495.255 399.561 506.528C405.537 514.366 415.436 516.37 424.82 515.168C432.476 514.184 455.491 502.223 459.434 502.405C460.379 502.443 469.677 508.161 468.483 509.66C467.29 511.158 437.602 522.346 433.917 523.31C411.389 529.191 397.127 523.73 384.965 503.951L280.179 503.732C274.194 501.794 275.988 489.632 280.914 489.632H328.167V379.376C328.167 372.274 342.486 373.41 342.486 378.421V489.632C347.24 488.773 378.236 490.768 379.715 489.632L379.696 489.613ZM405.47 269.081C408.964 262.571 381.92 255.603 374.723 256.958C370.494 257.75 327.107 279.849 324.014 282.618C319.098 287.009 326.983 297.949 329.79 298.559C331.164 298.855 342.524 293.481 349.617 293.949C357.292 294.455 367.124 302.302 368.537 302.349C369.768 302.387 390.464 293.519 391.161 292.507C393.452 289.176 390.932 282.331 393.624 276.833C396.058 271.869 405.136 269.721 405.47 269.091V269.081Z" fill="white"/>
<path d="M405.469 269.081C405.135 269.702 396.057 271.859 393.623 276.823C390.931 282.322 393.451 289.166 391.16 292.498C390.463 293.51 369.767 302.378 368.536 302.34C367.123 302.292 357.291 294.445 349.616 293.939C342.523 293.471 331.163 298.846 329.789 298.55C326.973 297.949 319.088 287.009 324.013 282.608C327.106 279.84 370.502 257.741 374.722 256.948C381.919 255.593 408.963 262.562 405.469 269.072V269.081Z" fill="white"/>
<path d="M718.453 187.768C726.43 187.768 732.896 181.302 732.896 173.325C732.896 165.349 726.43 158.882 718.453 158.882C710.476 158.882 704.01 165.349 704.01 173.325C704.01 181.302 710.476 187.768 718.453 187.768Z" fill="white"/>
<path d="M732.437 242.801C732.437 253.827 723.502 262.762 712.476 262.762C701.451 262.762 692.516 253.827 692.516 242.801C692.516 231.776 701.451 222.841 712.476 222.841C723.502 222.841 732.437 231.776 732.437 242.801ZM722.213 242.677C722.213 237.389 717.927 233.103 712.639 233.103C707.35 233.103 703.064 237.389 703.064 242.677C703.064 247.966 707.35 252.252 712.639 252.252C717.927 252.252 722.213 247.966 722.213 242.677Z" fill="white"/>
<path d="M712.649 252.252C717.937 252.252 722.223 247.965 722.223 242.677C722.223 237.389 717.937 233.103 712.649 233.103C707.361 233.103 703.074 237.389 703.074 242.677C703.074 247.965 707.361 252.252 712.649 252.252Z" fill="white"/>
<path d="M270.525 745.669L271.122 750.674L252.374 792.427C252.374 792.427 252.175 792.85 251.777 793.697C251.428 794.543 251.055 795.564 250.657 796.759C250.258 797.905 249.984 799 249.835 800.046H249.088L248.042 795.34L270.525 745.669ZM224.589 793.547V799H216.298V798.253C216.347 798.253 216.547 798.253 216.895 798.253C217.294 798.253 217.493 798.253 217.493 798.253C218.837 798.253 220.032 797.855 221.078 797.058C222.124 796.211 222.746 795.041 222.945 793.547H224.589ZM226.755 794.742C226.755 794.792 226.755 794.842 226.755 794.892C226.755 794.942 226.755 795.016 226.755 795.116C226.755 795.913 227.029 796.66 227.576 797.357C228.174 798.004 228.871 798.328 229.668 798.328H230.788V799H226.232V794.742H226.755ZM228.547 745.669H229.294L230.788 750.076L226.381 799H222.348L228.547 745.669ZM229.294 745.669L250.806 792.203L249.088 800.046L227.875 754.035L229.294 745.669ZM271.197 745.669L277.621 799H271.795L267.687 753.736L270.525 745.669H271.197ZM275.38 793.547H276.948C277.197 795.041 277.845 796.211 278.891 797.058C279.936 797.855 281.106 798.253 282.401 798.253C282.401 798.253 282.6 798.253 282.999 798.253C283.397 798.253 283.596 798.253 283.596 798.253V799H275.38V793.547ZM271.421 794.742H271.944V799H267.388V798.328H268.508C269.355 798.328 270.052 798.004 270.6 797.357C271.147 796.66 271.421 795.913 271.421 795.116C271.421 795.016 271.421 794.942 271.421 794.892C271.421 794.842 271.421 794.792 271.421 794.742ZM314.569 754.184V799H309.863V754.184H314.569ZM310.087 794.22V799H303.738V798.253C303.738 798.253 303.912 798.253 304.261 798.253C304.61 798.253 304.784 798.253 304.784 798.253C306.178 798.253 307.348 797.855 308.294 797.058C309.29 796.261 309.813 795.315 309.863 794.22H310.087ZM314.345 794.22H314.569C314.618 795.315 315.116 796.261 316.063 797.058C317.058 797.855 318.254 798.253 319.648 798.253C319.648 798.253 319.797 798.253 320.096 798.253C320.445 798.253 320.619 798.253 320.619 798.253L320.694 799H314.345V794.22ZM314.345 758.965V754.184H320.694L320.619 754.931C320.619 754.931 320.445 754.931 320.096 754.931C319.797 754.931 319.648 754.931 319.648 754.931C318.254 754.931 317.058 755.329 316.063 756.126C315.116 756.873 314.618 757.819 314.569 758.965H314.345ZM310.087 758.965H309.863C309.813 757.819 309.29 756.873 308.294 756.126C307.348 755.329 306.178 754.931 304.784 754.931C304.734 754.931 304.535 754.931 304.186 754.931C303.888 754.931 303.738 754.931 303.738 754.931V754.184H310.087V758.965ZM388.312 780.177L387.491 790.41C386.196 792.402 384.503 794.12 382.412 795.564C380.32 797.008 377.955 798.129 375.316 798.925C372.677 799.672 369.888 800.046 366.95 800.046C361.921 799.996 357.539 799.025 353.804 797.133C350.119 795.24 347.281 792.551 345.289 789.066C343.297 785.58 342.301 781.422 342.301 776.592C342.301 771.712 343.297 767.529 345.289 764.044C347.281 760.558 350.119 757.869 353.804 755.977C357.539 754.085 361.921 753.138 366.95 753.138C370.037 753.138 373.15 753.537 376.287 754.334C379.424 755.13 382.138 756.251 384.428 757.695L386.072 768.226H385.399C384.304 763.645 382.088 760.359 378.752 758.367C375.465 756.375 371.506 755.379 366.875 755.379C362.942 755.379 359.531 756.251 356.642 757.993C353.804 759.687 351.588 762.127 349.995 765.313C348.451 768.451 347.679 772.21 347.679 776.592C347.679 780.874 348.451 784.609 349.995 787.796C351.588 790.933 353.829 793.373 356.717 795.116C359.605 796.809 363.016 797.68 366.95 797.73C370.685 797.73 374.046 797.133 377.034 795.938C380.071 794.693 382.536 792.776 384.428 790.186C386.321 787.597 387.391 784.261 387.64 780.177H388.312ZM452.629 754.184V799H447.849V754.184H452.629ZM420.287 754.184V799H415.506V754.184H420.287ZM448.595 775.77V778.011H419.465V775.77H448.595ZM415.731 794.22V799H410.278V798.253C410.278 798.253 410.427 798.253 410.726 798.253C411.025 798.253 411.174 798.253 411.174 798.253C412.369 798.253 413.365 797.855 414.162 797.058C415.009 796.261 415.457 795.315 415.506 794.22H415.731ZM420.063 794.22H420.287C420.287 795.315 420.71 796.261 421.557 797.058C422.403 797.855 423.424 798.253 424.619 798.253C424.619 798.253 424.768 798.253 425.067 798.253C425.366 798.253 425.515 798.253 425.515 798.253V799H420.063V794.22ZM420.063 758.965V754.184H425.515V754.931C425.515 754.931 425.366 754.931 425.067 754.931C424.768 754.931 424.619 754.931 424.619 754.931C423.424 754.931 422.403 755.329 421.557 756.126C420.71 756.873 420.287 757.819 420.287 758.965H420.063ZM415.731 758.965H415.506C415.457 757.819 415.009 756.873 414.162 756.126C413.365 755.329 412.369 754.931 411.174 754.931C411.174 754.931 411.025 754.931 410.726 754.931C410.427 754.931 410.278 754.931 410.278 754.931V754.184H415.731V758.965ZM448.073 794.22V799H442.62V798.253C442.62 798.253 442.769 798.253 443.068 798.253C443.367 798.253 443.516 798.253 443.516 798.253C444.711 798.253 445.707 797.855 446.504 797.058C447.351 796.261 447.799 795.315 447.849 794.22H448.073ZM452.405 794.22H452.629C452.679 795.315 453.102 796.261 453.899 797.058C454.745 797.855 455.766 798.253 456.961 798.253C456.961 798.253 457.111 798.253 457.409 798.253C457.708 798.253 457.857 798.253 457.857 798.253V799H452.405V794.22ZM452.405 758.965V754.184H457.857V754.931C457.857 754.931 457.708 754.931 457.409 754.931C457.111 754.931 456.961 754.931 456.961 754.931C455.766 754.931 454.745 755.329 453.899 756.126C453.102 756.873 452.679 757.819 452.629 758.965H452.405ZM448.073 758.965H447.849C447.799 757.819 447.351 756.873 446.504 756.126C445.707 755.329 444.711 754.931 443.516 754.931C443.516 754.931 443.367 754.931 443.068 754.931C442.769 754.931 442.62 754.931 442.62 754.931V754.184H448.073V758.965ZM491.775 754.184V799H487.069V754.184H491.775ZM487.294 794.22V799H480.945V798.253C480.945 798.253 481.119 798.253 481.467 798.253C481.816 798.253 481.99 798.253 481.99 798.253C483.385 798.253 484.555 797.855 485.501 797.058C486.497 796.261 487.02 795.315 487.069 794.22H487.294ZM491.551 794.22H491.775C491.825 795.315 492.323 796.261 493.269 797.058C494.265 797.855 495.46 798.253 496.854 798.253C496.854 798.253 497.004 798.253 497.302 798.253C497.651 798.253 497.825 798.253 497.825 798.253L497.9 799H491.551V794.22ZM491.551 758.965V754.184H497.9L497.825 754.931C497.825 754.931 497.651 754.931 497.302 754.931C497.004 754.931 496.854 754.931 496.854 754.931C495.46 754.931 494.265 755.329 493.269 756.126C492.323 756.873 491.825 757.819 491.775 758.965H491.551ZM487.294 758.965H487.069C487.02 757.819 486.497 756.873 485.501 756.126C484.555 755.329 483.385 754.931 481.99 754.931C481.941 754.931 481.741 754.931 481.393 754.931C481.094 754.931 480.945 754.931 480.945 754.931V754.184H487.294V758.965ZM544.007 753.138C546.298 753.138 548.439 753.313 550.431 753.661C552.472 753.96 554.389 754.458 556.182 755.155C558.025 755.803 559.767 756.649 561.411 757.695L563.054 768.226H562.382C561.685 765.289 560.539 762.873 558.946 760.981C557.402 759.089 555.385 757.695 552.896 756.798C550.406 755.852 547.418 755.379 543.932 755.379C540.148 755.379 536.812 756.251 533.924 757.993C531.085 759.687 528.869 762.127 527.276 765.313C525.682 768.451 524.886 772.21 524.886 776.592C524.886 780.924 525.682 784.684 527.276 787.871C528.869 791.058 531.11 793.523 533.998 795.265C536.886 796.958 540.223 797.805 544.007 797.805C546.099 797.805 548.09 797.581 549.983 797.133C551.875 796.685 553.692 795.987 555.435 795.041C557.228 794.045 558.896 792.8 560.44 791.307L560.514 781.372C560.564 780.426 560.265 779.704 559.618 779.206C559.02 778.708 558.174 778.459 557.078 778.459H556.033V777.712H569.702V778.459H568.656C566.415 778.459 565.295 779.455 565.295 781.447V790.41C564.149 791.854 562.581 793.323 560.589 794.817C558.597 796.311 556.207 797.556 553.418 798.552C550.68 799.548 547.543 800.046 544.007 800.046C539.077 799.996 534.77 799.025 531.085 797.133C527.45 795.24 524.612 792.551 522.57 789.066C520.529 785.58 519.508 781.422 519.508 776.592C519.508 771.712 520.529 767.529 522.57 764.044C524.612 760.558 527.475 757.869 531.16 755.977C534.845 754.085 539.127 753.138 544.007 753.138ZM611.245 753.138L631.786 798.552H625.885L609.975 759.786L611.245 753.138ZM596.829 793.547C596.281 795.041 596.356 796.211 597.053 797.058C597.75 797.855 598.547 798.253 599.443 798.253H600.041V799H585.775V798.253C585.775 798.253 585.874 798.253 586.073 798.253C586.273 798.253 586.372 798.253 586.372 798.253C587.418 798.253 588.488 797.905 589.584 797.207C590.679 796.46 591.626 795.24 592.422 793.547H596.829ZM611.245 753.138L611.768 758.292L594.663 798.776H589.957L607.66 760.832C607.66 760.832 607.784 760.533 608.033 759.936C608.332 759.338 608.656 758.616 609.004 757.769C609.403 756.873 609.751 756.002 610.05 755.155C610.349 754.309 610.523 753.636 610.573 753.138H611.245ZM620.059 781.597V783.837H600.265V781.597H620.059ZM623.868 793.547H629.545C630.292 795.24 631.213 796.46 632.308 797.207C633.404 797.905 634.45 798.253 635.446 798.253C635.446 798.253 635.545 798.253 635.744 798.253C635.943 798.253 636.043 798.253 636.043 798.253V799H620.731V798.253H621.329C622.175 798.253 622.947 797.855 623.644 797.058C624.341 796.211 624.416 795.041 623.868 793.547ZM658.681 753.064L700.061 792.054L700.808 800.046L659.428 760.832L658.681 753.064ZM658.831 794.369V799H653.229V798.253C653.229 798.253 653.428 798.253 653.826 798.253C654.275 798.253 654.499 798.253 654.499 798.253C655.644 798.253 656.615 797.88 657.412 797.133C658.208 796.386 658.607 795.465 658.607 794.369H658.831ZM661.968 794.369C661.968 795.465 662.366 796.386 663.163 797.133C664.01 797.88 664.981 798.253 666.076 798.253C666.076 798.253 666.275 798.253 666.674 798.253C667.122 798.253 667.346 798.253 667.346 798.253V799H661.744V794.369H661.968ZM658.681 753.064L661.893 757.247L661.968 799H658.607V762.4C658.607 759.861 658.482 757.67 658.233 755.827C658.034 753.985 657.935 753.064 657.935 753.064H658.681ZM700.808 754.184V790.485C700.808 792.078 700.858 793.622 700.958 795.116C701.057 796.56 701.157 797.755 701.257 798.701C701.406 799.598 701.481 800.046 701.481 800.046H700.808L697.522 796.087V754.184H700.808ZM700.584 758.815V754.184H706.186V754.931C706.186 754.931 705.962 754.931 705.514 754.931C705.116 754.931 704.916 754.931 704.916 754.931C703.821 754.931 702.85 755.305 702.003 756.051C701.207 756.798 700.808 757.72 700.808 758.815H700.584ZM697.522 758.815C697.472 757.72 697.049 756.798 696.252 756.051C695.455 755.305 694.484 754.931 693.339 754.931C693.339 754.931 693.115 754.931 692.667 754.931C692.268 754.931 692.069 754.931 692.069 754.931V754.184H697.671V758.815H697.522Z" fill="white"/>
<rect x="60" y="647" width="796" height="239" fill="white"/>
<path d="M277.82 727.19L276.924 738.916C275.629 741.058 273.986 742.975 271.994 744.668C270.052 746.311 267.736 747.631 265.048 748.627C262.408 749.573 259.371 750.046 255.935 750.046C250.756 749.996 246.15 748.851 242.117 746.61C238.083 744.369 234.921 741.232 232.631 737.198C230.39 733.115 229.27 728.31 229.27 722.783C229.27 717.355 230.39 712.624 232.631 708.591C234.872 704.508 238.009 701.346 242.042 699.105C246.125 696.814 250.906 695.669 256.383 695.669C260.068 695.669 263.379 696.167 266.317 697.163C269.305 698.109 271.894 699.304 274.085 700.748L275.579 711.28H274.907C273.812 706.898 271.571 703.587 268.185 701.346C264.799 699.055 260.865 697.91 256.383 697.91C252.001 697.91 248.192 698.956 244.955 701.047C241.768 703.089 239.278 705.977 237.486 709.711C235.743 713.396 234.872 717.728 234.872 722.708C234.872 727.688 235.743 732.045 237.486 735.779C239.278 739.514 241.743 742.427 244.88 744.518C248.067 746.61 251.752 747.705 255.935 747.805C259.47 747.805 262.732 747.158 265.72 745.863C268.757 744.518 271.297 742.352 273.338 739.365C275.38 736.327 276.675 732.269 277.223 727.19H277.82ZM310.742 704.184V749H305.962V704.184H310.742ZM330.835 746.685L330.685 749H310.593V746.685H330.835ZM335.017 738.319L330.909 749H319.556L322.096 746.685C324.585 746.685 326.577 746.336 328.071 745.639C329.615 744.892 330.86 743.896 331.806 742.651C332.752 741.356 333.573 739.912 334.271 738.319H335.017ZM306.111 744.22L307.082 749H300.584V748.253C300.584 748.253 300.758 748.253 301.107 748.253C301.455 748.253 301.63 748.253 301.63 748.253C302.875 748.253 303.895 747.855 304.692 747.058C305.489 746.261 305.912 745.315 305.962 744.22H306.111ZM310.518 708.965V704.184H316.045V704.931C316.045 704.931 315.896 704.931 315.597 704.931C315.298 704.931 315.149 704.931 315.149 704.931C313.954 704.931 312.908 705.329 312.012 706.126C311.165 706.873 310.742 707.819 310.742 708.965H310.518ZM306.111 708.965H305.962C305.912 707.819 305.464 706.873 304.617 706.126C303.771 705.329 302.725 704.931 301.48 704.931C301.48 704.931 301.331 704.931 301.032 704.931C300.733 704.931 300.584 704.931 300.584 704.931V704.184H306.111V708.965ZM363.903 704.184V749H359.122V704.184H363.903ZM383.995 746.685L383.846 749H363.753V746.685H383.995ZM380.485 725.472V727.712H363.753V725.472H380.485ZM383.92 704.184V706.5H363.753V704.184H383.92ZM388.178 738.319L384.07 749H372.716L375.256 746.685C377.746 746.685 379.738 746.336 381.231 745.639C382.775 744.892 384.02 743.896 384.966 742.651C385.912 741.356 386.734 739.912 387.431 738.319H388.178ZM380.485 727.563V731.821H379.663V730.85C379.663 730.003 379.414 729.281 378.916 728.683C378.418 728.036 377.646 727.712 376.6 727.712V727.563H380.485ZM380.485 721.364V725.621H376.6V725.472C377.646 725.472 378.418 725.173 378.916 724.575C379.414 723.928 379.663 723.181 379.663 722.335V721.364H380.485ZM383.92 706.276V711.429H383.099V710.309C383.099 709.263 382.75 708.367 382.053 707.62C381.406 706.873 380.509 706.5 379.364 706.5V706.276H383.92ZM383.92 702.989V704.931L375.405 704.184C376.949 704.184 378.592 704.06 380.335 703.811C382.078 703.512 383.273 703.238 383.92 702.989ZM359.272 744.22L360.243 749H353.744V748.253C353.744 748.253 353.919 748.253 354.267 748.253C354.616 748.253 354.79 748.253 354.79 748.253C356.035 748.253 357.056 747.855 357.853 747.058C358.649 746.261 359.073 745.315 359.122 744.22H359.272ZM359.272 708.89H359.122C359.073 707.745 358.649 706.798 357.853 706.051C357.056 705.305 356.035 704.931 354.79 704.931C354.79 704.931 354.616 704.931 354.267 704.931C353.919 704.931 353.744 704.931 353.744 704.931V704.184H360.243L359.272 708.89ZM430.447 703.138L450.987 748.552H445.086L429.177 709.786L430.447 703.138ZM416.031 743.547C415.483 745.041 415.558 746.211 416.255 747.058C416.952 747.855 417.749 748.253 418.645 748.253H419.243V749H404.976V748.253C404.976 748.253 405.076 748.253 405.275 748.253C405.474 748.253 405.574 748.253 405.574 748.253C406.62 748.253 407.69 747.905 408.786 747.207C409.881 746.46 410.827 745.24 411.624 743.547H416.031ZM430.447 703.138L430.969 708.292L413.865 748.776H409.159L426.861 710.832C426.861 710.832 426.986 710.533 427.235 709.936C427.534 709.338 427.857 708.616 428.206 707.769C428.604 706.873 428.953 706.002 429.252 705.155C429.55 704.309 429.725 703.636 429.774 703.138H430.447ZM439.26 731.597V733.837H419.467V731.597H439.26ZM443.07 743.547H448.746C449.493 745.24 450.415 746.46 451.51 747.207C452.606 747.905 453.651 748.253 454.647 748.253C454.647 748.253 454.747 748.253 454.946 748.253C455.145 748.253 455.245 748.253 455.245 748.253V749H439.933V748.253H440.53C441.377 748.253 442.149 747.855 442.846 747.058C443.543 746.211 443.617 745.041 443.07 743.547ZM477.883 703.064L519.263 742.054L520.01 750.046L478.63 710.832L477.883 703.064ZM478.033 744.369V749H472.431V748.253C472.431 748.253 472.63 748.253 473.028 748.253C473.476 748.253 473.7 748.253 473.7 748.253C474.846 748.253 475.817 747.88 476.613 747.133C477.41 746.386 477.808 745.465 477.808 744.369H478.033ZM481.17 744.369C481.17 745.465 481.568 746.386 482.365 747.133C483.211 747.88 484.182 748.253 485.278 748.253C485.278 748.253 485.477 748.253 485.875 748.253C486.323 748.253 486.548 748.253 486.548 748.253V749H480.946V744.369H481.17ZM477.883 703.064L481.095 707.247L481.17 749H477.808V712.4C477.808 709.861 477.684 707.67 477.435 705.827C477.236 703.985 477.136 703.064 477.136 703.064H477.883ZM520.01 704.184V740.485C520.01 742.078 520.06 743.622 520.159 745.116C520.259 746.56 520.359 747.755 520.458 748.701C520.608 749.598 520.682 750.046 520.682 750.046H520.01L516.724 746.087V704.184H520.01ZM519.786 708.815V704.184H525.388V704.931C525.388 704.931 525.164 704.931 524.716 704.931C524.317 704.931 524.118 704.931 524.118 704.931C523.023 704.931 522.052 705.305 521.205 706.051C520.408 706.798 520.01 707.72 520.01 708.815H519.786ZM516.724 708.815C516.674 707.72 516.25 706.798 515.454 706.051C514.657 705.305 513.686 704.931 512.541 704.931C512.541 704.931 512.317 704.931 511.868 704.931C511.47 704.931 511.271 704.931 511.271 704.931V704.184H516.873V708.815H516.724ZM557.902 704.184V749H553.196V704.184H557.902ZM553.42 744.22V749H547.071V748.253C547.071 748.253 547.245 748.253 547.594 748.253C547.942 748.253 548.117 748.253 548.117 748.253C549.511 748.253 550.681 747.855 551.627 747.058C552.623 746.261 553.146 745.315 553.196 744.22H553.42ZM557.677 744.22H557.902C557.951 745.315 558.449 746.261 559.395 747.058C560.391 747.855 561.586 748.253 562.981 748.253C562.981 748.253 563.13 748.253 563.429 748.253C563.777 748.253 563.952 748.253 563.952 748.253L564.026 749H557.677V744.22ZM557.677 708.965V704.184H564.026L563.952 704.931C563.952 704.931 563.777 704.931 563.429 704.931C563.13 704.931 562.981 704.931 562.981 704.931C561.586 704.931 560.391 705.329 559.395 706.126C558.449 706.873 557.951 707.819 557.902 708.965H557.677ZM553.42 708.965H553.196C553.146 707.819 552.623 706.873 551.627 706.126C550.681 705.329 549.511 704.931 548.117 704.931C548.067 704.931 547.868 704.931 547.519 704.931C547.22 704.931 547.071 704.931 547.071 704.931V704.184H553.42V708.965ZM591.061 703.064L632.441 742.054L633.188 750.046L591.808 710.832L591.061 703.064ZM591.21 744.369V749H585.608V748.253C585.608 748.253 585.807 748.253 586.206 748.253C586.654 748.253 586.878 748.253 586.878 748.253C588.023 748.253 588.994 747.88 589.791 747.133C590.588 746.386 590.986 745.465 590.986 744.369H591.21ZM594.347 744.369C594.347 745.465 594.745 746.386 595.542 747.133C596.389 747.88 597.36 748.253 598.455 748.253C598.455 748.253 598.654 748.253 599.053 748.253C599.501 748.253 599.725 748.253 599.725 748.253V749H594.123V744.369H594.347ZM591.061 703.064L594.272 707.247L594.347 749H590.986V712.4C590.986 709.861 590.861 707.67 590.612 705.827C590.413 703.985 590.314 703.064 590.314 703.064H591.061ZM633.188 704.184V740.485C633.188 742.078 633.237 743.622 633.337 745.116C633.437 746.56 633.536 747.755 633.636 748.701C633.785 749.598 633.86 750.046 633.86 750.046H633.188L629.901 746.087V704.184H633.188ZM632.963 708.815V704.184H638.565V704.931C638.565 704.931 638.341 704.931 637.893 704.931C637.495 704.931 637.296 704.931 637.296 704.931C636.2 704.931 635.229 705.305 634.383 706.051C633.586 706.798 633.188 707.72 633.188 708.815H632.963ZM629.901 708.815C629.851 707.72 629.428 706.798 628.631 706.051C627.835 705.305 626.864 704.931 625.718 704.931C625.718 704.931 625.494 704.931 625.046 704.931C624.648 704.931 624.448 704.931 624.448 704.931V704.184H630.05V708.815H629.901ZM684.01 703.138C686.3 703.138 688.442 703.313 690.433 703.661C692.475 703.96 694.392 704.458 696.185 705.155C698.027 705.803 699.77 706.649 701.413 707.695L703.056 718.226H702.384C701.687 715.289 700.542 712.873 698.948 710.981C697.405 709.089 695.388 707.695 692.898 706.798C690.408 705.852 687.421 705.379 683.935 705.379C680.151 705.379 676.814 706.251 673.926 707.993C671.088 709.687 668.872 712.127 667.278 715.313C665.685 718.451 664.888 722.21 664.888 726.592C664.888 730.924 665.685 734.684 667.278 737.871C668.872 741.058 671.113 743.523 674.001 745.265C676.889 746.958 680.225 747.805 684.01 747.805C686.101 747.805 688.093 747.581 689.985 747.133C691.877 746.685 693.695 745.987 695.438 745.041C697.23 744.045 698.899 742.8 700.442 741.307L700.517 731.372C700.567 730.426 700.268 729.704 699.621 729.206C699.023 728.708 698.177 728.459 697.081 728.459H696.035V727.712H709.704V728.459H708.658C706.418 728.459 705.297 729.455 705.297 731.447V740.41C704.152 741.854 702.583 743.323 700.592 744.817C698.6 746.311 696.21 747.556 693.421 748.552C690.682 749.548 687.545 750.046 684.01 750.046C679.08 749.996 674.773 749.025 671.088 747.133C667.453 745.24 664.614 742.551 662.573 739.066C660.531 735.58 659.51 731.422 659.51 726.592C659.51 721.712 660.531 717.529 662.573 714.044C664.614 710.558 667.478 707.869 671.163 705.977C674.847 704.085 679.13 703.138 684.01 703.138ZM165.808 796.669C166.605 796.669 167.452 796.719 168.348 796.819C169.294 796.918 170.19 797.068 171.037 797.267C171.933 797.416 172.73 797.59 173.427 797.79C174.174 797.939 174.747 798.113 175.145 798.312V806.603H174.473C174.473 804.213 173.651 802.346 172.008 801.001C170.365 799.607 168.373 798.91 166.033 798.91C163.294 798.91 161.078 799.781 159.385 801.524C157.692 803.217 156.845 805.209 156.845 807.5C156.845 808.446 157.044 809.566 157.443 810.861C157.891 812.106 158.688 813.276 159.833 814.371L174.548 827.966C176.041 829.36 177.037 830.854 177.535 832.447C178.033 834.041 178.282 835.584 178.282 837.078C178.282 841.211 177.012 844.572 174.473 847.162C171.983 849.751 168.597 851.046 164.315 851.046C163.119 851.046 161.7 850.921 160.057 850.672C158.464 850.423 156.895 850 155.351 849.402C153.858 848.755 152.613 847.933 151.617 846.938C151.467 846.141 151.393 845.145 151.393 843.95C151.393 842.755 151.492 841.51 151.691 840.215C151.891 838.871 152.165 837.651 152.513 836.555H153.185C152.936 839.095 153.26 841.311 154.156 843.203C155.053 845.095 156.347 846.539 158.04 847.535C159.783 848.481 161.75 848.905 163.941 848.805C166.68 848.656 169.02 847.709 170.962 845.967C172.954 844.174 173.95 841.784 173.95 838.796C173.95 837.352 173.701 836.057 173.203 834.912C172.705 833.717 171.983 832.696 171.037 831.85L156.696 818.554C155.202 817.16 154.156 815.641 153.559 813.998C152.961 812.305 152.662 810.736 152.662 809.292C152.662 807.201 153.16 805.184 154.156 803.242C155.152 801.3 156.621 799.732 158.563 798.536C160.555 797.292 162.97 796.669 165.808 796.669ZM175.145 797.416V798.985H169.468V797.416H175.145ZM211.716 805.184V850H206.935V805.184H211.716ZM231.808 847.685L231.659 850H211.566V847.685H231.808ZM228.297 826.472V828.712H211.566V826.472H228.297ZM231.733 805.184V807.5H211.566V805.184H231.733ZM235.991 839.319L231.883 850H220.529L223.069 847.685C225.559 847.685 227.55 847.336 229.044 846.639C230.588 845.892 231.833 844.896 232.779 843.651C233.725 842.356 234.547 840.912 235.244 839.319H235.991ZM228.297 828.563V832.821H227.476V831.85C227.476 831.003 227.227 830.281 226.729 829.683C226.231 829.036 225.459 828.712 224.413 828.712V828.563H228.297ZM228.297 822.364V826.621H224.413V826.472C225.459 826.472 226.231 826.173 226.729 825.575C227.227 824.928 227.476 824.181 227.476 823.335V822.364H228.297ZM231.733 807.276V812.429H230.912V811.309C230.912 810.263 230.563 809.367 229.866 808.62C229.219 807.873 228.322 807.5 227.177 807.5V807.276H231.733ZM231.733 803.989V805.931L223.218 805.184C224.762 805.184 226.405 805.06 228.148 804.811C229.891 804.512 231.086 804.238 231.733 803.989ZM207.085 845.22L208.056 850H201.557V849.253C201.557 849.253 201.732 849.253 202.08 849.253C202.429 849.253 202.603 849.253 202.603 849.253C203.848 849.253 204.869 848.855 205.665 848.058C206.462 847.261 206.885 846.315 206.935 845.22H207.085ZM207.085 809.89H206.935C206.885 808.745 206.462 807.798 205.665 807.051C204.869 806.305 203.848 805.931 202.603 805.931C202.603 805.931 202.429 805.931 202.08 805.931C201.732 805.931 201.557 805.931 201.557 805.931V805.184H208.056L207.085 809.89ZM265.654 805.184H275.289C277.63 805.184 279.721 805.458 281.563 806.006C283.456 806.554 285.049 807.35 286.344 808.396C287.688 809.442 288.709 810.711 289.406 812.205C290.103 813.699 290.452 815.392 290.452 817.284C290.452 819.376 289.954 821.318 288.958 823.11C287.962 824.903 286.568 826.372 284.775 827.517C283.032 828.663 281.041 829.36 278.8 829.609C279.646 829.957 280.617 830.729 281.713 831.924C282.858 833.119 283.829 834.29 284.626 835.435C284.626 835.435 284.95 835.883 285.597 836.779C286.244 837.626 287.066 838.696 288.062 839.991C289.107 841.236 290.128 842.431 291.124 843.576C292.17 844.722 293.116 845.718 293.963 846.564C294.859 847.411 295.805 848.083 296.801 848.581C297.847 849.029 299.042 849.253 300.386 849.253V850H298.071C295.332 850 293.066 849.651 291.274 848.954C289.531 848.257 288.112 847.411 287.016 846.415C285.921 845.369 284.974 844.373 284.178 843.427C283.979 843.178 283.505 842.556 282.759 841.56C282.061 840.514 281.29 839.394 280.443 838.198C279.597 837.003 278.825 835.933 278.128 834.987C277.43 833.991 277.007 833.393 276.858 833.194C275.862 831.899 274.717 830.754 273.422 829.758C272.127 828.712 270.758 828.19 269.314 828.19V827.443C269.314 827.443 269.712 827.468 270.509 827.517C271.306 827.517 272.326 827.492 273.571 827.443C274.966 827.393 276.36 827.293 277.754 827.144C279.148 826.945 280.443 826.397 281.638 825.501C282.883 824.604 283.854 823.11 284.551 821.019C284.75 820.471 284.9 819.824 284.999 819.077C285.099 818.33 285.124 817.558 285.074 816.762C285.024 815.367 284.75 814.122 284.252 813.027C283.804 811.931 283.132 810.985 282.236 810.189C281.389 809.392 280.368 808.769 279.173 808.321C277.978 807.873 276.634 807.624 275.14 807.574C272.799 807.475 270.758 807.45 269.015 807.5C267.272 807.549 266.401 807.549 266.401 807.5C266.401 807.45 266.326 807.251 266.177 806.902C266.077 806.504 265.953 806.13 265.803 805.782C265.704 805.383 265.654 805.184 265.654 805.184ZM266.55 805.184V850H261.77V805.184H266.55ZM261.994 845.22L262.89 850H256.541V849.253C256.541 849.253 256.716 849.253 257.064 849.253C257.413 849.253 257.587 849.253 257.587 849.253C258.782 849.253 259.778 848.855 260.575 848.058C261.371 847.261 261.795 846.315 261.844 845.22H261.994ZM261.994 809.89H261.844C261.795 808.745 261.371 807.798 260.575 807.051C259.778 806.305 258.782 805.931 257.587 805.931C257.587 805.931 257.413 805.931 257.064 805.931C256.716 805.931 256.541 805.931 256.541 805.931V805.184H262.89L261.994 809.89ZM266.326 845.22H266.55C266.6 846.315 267.023 847.261 267.82 848.058C268.617 848.855 269.613 849.253 270.808 849.253C270.808 849.253 270.957 849.253 271.256 849.253C271.604 849.253 271.779 849.253 271.779 849.253L271.853 850H265.43L266.326 845.22ZM335.635 851.046L315.094 805.632H320.995L336.905 844.398L335.635 851.046ZM335.635 851.046L335.112 845.892L352.217 805.408H356.922L339.22 843.352C339.22 843.352 339.071 843.651 338.772 844.249C338.523 844.846 338.199 845.593 337.801 846.489C337.452 847.336 337.129 848.182 336.83 849.029C336.531 849.876 336.357 850.548 336.307 851.046H335.635ZM350.051 810.637C350.598 809.143 350.524 807.998 349.827 807.201C349.129 806.354 348.333 805.931 347.436 805.931H346.913V805.184H361.105V805.931C361.105 805.931 361.006 805.931 360.806 805.931C360.607 805.931 360.508 805.931 360.508 805.931C359.462 805.931 358.391 806.305 357.296 807.051C356.2 807.749 355.254 808.944 354.457 810.637H350.051ZM323.012 810.637H317.335C316.588 808.944 315.667 807.749 314.571 807.051C313.476 806.305 312.43 805.931 311.434 805.931C311.434 805.931 311.335 805.931 311.135 805.931C310.936 805.931 310.837 805.931 310.837 805.931V805.184H326.149V805.931H325.551C324.705 805.931 323.933 806.354 323.236 807.201C322.588 807.998 322.514 809.143 323.012 810.637ZM390.615 805.184V850H385.91V805.184H390.615ZM386.134 845.22V850H379.785V849.253C379.785 849.253 379.959 849.253 380.308 849.253C380.656 849.253 380.831 849.253 380.831 849.253C382.225 849.253 383.395 848.855 384.341 848.058C385.337 847.261 385.86 846.315 385.91 845.22H386.134ZM390.391 845.22H390.615C390.665 846.315 391.163 847.261 392.109 848.058C393.105 848.855 394.3 849.253 395.694 849.253C395.694 849.253 395.844 849.253 396.143 849.253C396.491 849.253 396.665 849.253 396.665 849.253L396.74 850H390.391V845.22ZM390.391 809.965V805.184H396.74L396.665 805.931C396.665 805.931 396.491 805.931 396.143 805.931C395.844 805.931 395.694 805.931 395.694 805.931C394.3 805.931 393.105 806.329 392.109 807.126C391.163 807.873 390.665 808.819 390.615 809.965H390.391ZM386.134 809.965H385.91C385.86 808.819 385.337 807.873 384.341 807.126C383.395 806.329 382.225 805.931 380.831 805.931C380.781 805.931 380.582 805.931 380.233 805.931C379.934 805.931 379.785 805.931 379.785 805.931V805.184H386.134V809.965ZM464.359 831.177L463.537 841.41C462.243 843.402 460.55 845.12 458.458 846.564C456.367 848.008 454.002 849.129 451.362 849.925C448.723 850.672 445.935 851.046 442.997 851.046C437.967 850.996 433.585 850.025 429.851 848.133C426.166 846.24 423.328 843.551 421.336 840.066C419.344 836.58 418.348 832.422 418.348 827.592C418.348 822.712 419.344 818.529 421.336 815.044C423.328 811.558 426.166 808.869 429.851 806.977C433.585 805.085 437.967 804.138 442.997 804.138C446.084 804.138 449.196 804.537 452.333 805.334C455.471 806.13 458.184 807.251 460.475 808.695L462.118 819.226H461.446C460.35 814.645 458.135 811.359 454.798 809.367C451.512 807.375 447.553 806.379 442.922 806.379C438.988 806.379 435.577 807.251 432.689 808.993C429.851 810.687 427.635 813.127 426.041 816.313C424.498 819.451 423.726 823.21 423.726 827.592C423.726 831.874 424.498 835.609 426.041 838.796C427.635 841.933 429.876 844.373 432.764 846.116C435.652 847.809 439.063 848.68 442.997 848.73C446.731 848.73 450.093 848.133 453.08 846.938C456.118 845.693 458.583 843.776 460.475 841.186C462.367 838.597 463.438 835.261 463.687 831.177H464.359ZM496.483 805.184V850H491.703V805.184H496.483ZM516.575 847.685L516.426 850H496.333V847.685H516.575ZM513.065 826.472V828.712H496.333V826.472H513.065ZM516.501 805.184V807.5H496.333V805.184H516.501ZM520.758 839.319L516.65 850H505.297L507.836 847.685C510.326 847.685 512.318 847.336 513.812 846.639C515.355 845.892 516.6 844.896 517.546 843.651C518.492 842.356 519.314 840.912 520.011 839.319H520.758ZM513.065 828.563V832.821H512.243V831.85C512.243 831.003 511.994 830.281 511.496 829.683C510.998 829.036 510.226 828.712 509.181 828.712V828.563H513.065ZM513.065 822.364V826.621H509.181V826.472C510.226 826.472 510.998 826.173 511.496 825.575C511.994 824.928 512.243 824.181 512.243 823.335V822.364H513.065ZM516.501 807.276V812.429H515.679V811.309C515.679 810.263 515.33 809.367 514.633 808.62C513.986 807.873 513.09 807.5 511.944 807.5V807.276H516.501ZM516.501 803.989V805.931L507.986 805.184C509.529 805.184 511.173 805.06 512.915 804.811C514.658 804.512 515.853 804.238 516.501 803.989ZM491.852 845.22L492.823 850H486.325V849.253C486.325 849.253 486.499 849.253 486.847 849.253C487.196 849.253 487.37 849.253 487.37 849.253C488.615 849.253 489.636 848.855 490.433 848.058C491.229 847.261 491.653 846.315 491.703 845.22H491.852ZM491.852 809.89H491.703C491.653 808.745 491.229 807.798 490.433 807.051C489.636 806.305 488.615 805.931 487.37 805.931C487.37 805.931 487.196 805.931 486.847 805.931C486.499 805.931 486.325 805.931 486.325 805.931V805.184H492.823L491.852 809.89ZM555.408 804.138C556.802 804.138 558.022 804.188 559.068 804.288C560.114 804.387 561.01 804.512 561.757 804.661C562.554 804.761 563.226 804.91 563.774 805.109C564.371 805.259 564.894 805.408 565.342 805.558L565.417 812.952H564.521C564.521 810.911 563.824 809.317 562.429 808.172C561.035 806.977 558.869 806.379 555.931 806.379C553.441 806.379 551.3 807.076 549.507 808.471C547.765 809.815 546.918 811.483 546.968 813.475C546.968 814.122 547.042 814.795 547.192 815.492C547.391 816.139 547.69 816.786 548.088 817.434C548.536 818.081 549.134 818.728 549.881 819.376L564.969 831.028C566.114 831.974 566.961 833.194 567.508 834.688C568.056 836.132 568.355 837.576 568.405 839.02C568.455 841.211 567.882 843.228 566.687 845.07C565.492 846.913 563.873 848.382 561.832 849.477C559.84 850.523 557.624 851.046 555.184 851.046C553.74 851.046 552.171 850.921 550.478 850.672C548.835 850.423 547.291 850.05 545.847 849.552C544.403 849.004 543.208 848.332 542.262 847.535C542.113 846.838 542.038 845.967 542.038 844.921C542.038 843.825 542.113 842.68 542.262 841.485C542.461 840.29 542.71 839.219 543.009 838.273H543.905C543.706 840.514 544.03 842.431 544.876 844.025C545.723 845.618 546.968 846.838 548.611 847.685C550.254 848.481 552.171 848.855 554.362 848.805C557.45 848.705 559.865 847.933 561.608 846.489C563.4 844.996 564.297 843.029 564.297 840.589C564.297 839.394 564.073 838.323 563.624 837.377C563.226 836.381 562.554 835.46 561.608 834.613L546.669 823.11C545.275 821.915 544.329 820.596 543.831 819.152C543.333 817.708 543.084 816.338 543.084 815.044C543.084 813.002 543.632 811.16 544.727 809.516C545.823 807.873 547.291 806.578 549.134 805.632C551.026 804.636 553.118 804.138 555.408 804.138ZM565.268 804.811L565.342 806.155H560.039V804.811H565.268ZM636.07 797.715V850H631.215V797.715H636.07ZM656.237 847.685V850H635.846V847.685H656.237ZM660.794 837.9L656.461 850H644.062L646.751 847.685C649.391 847.685 651.532 847.286 653.175 846.489C654.868 845.643 656.237 844.473 657.283 842.979C658.329 841.485 659.25 839.792 660.047 837.9H660.794ZM631.439 844.547V850H625.464V849.253C625.464 849.253 625.613 849.253 625.912 849.253C626.261 849.253 626.435 849.253 626.435 849.253C627.73 849.253 628.825 848.805 629.721 847.909C630.667 846.962 631.165 845.842 631.215 844.547H631.439ZM631.439 803.167H631.215C631.165 801.873 630.667 800.777 629.721 799.881C628.825 798.935 627.73 798.462 626.435 798.462C626.435 798.462 626.261 798.462 625.912 798.462C625.613 798.462 625.464 798.462 625.464 798.462V797.715H631.439V803.167ZM635.846 803.167V797.715H641.822V798.462C641.772 798.462 641.598 798.462 641.299 798.462C641 798.462 640.851 798.462 640.851 798.462C639.556 798.462 638.436 798.935 637.489 799.881C636.593 800.777 636.12 801.873 636.07 803.167H635.846ZM691.857 797.715V850H687.002V797.715H691.857ZM712.024 847.685V850H691.633V847.685H712.024ZM716.58 837.9L712.248 850H699.849L702.538 847.685C705.177 847.685 707.318 847.286 708.961 846.489C710.654 845.643 712.024 844.473 713.069 842.979C714.115 841.485 715.036 839.792 715.833 837.9H716.58ZM687.226 844.547V850H681.25V849.253C681.25 849.253 681.4 849.253 681.698 849.253C682.047 849.253 682.221 849.253 682.221 849.253C683.516 849.253 684.611 848.805 685.508 847.909C686.454 846.962 686.952 845.842 687.002 844.547H687.226ZM687.226 803.167H687.002C686.952 801.873 686.454 800.777 685.508 799.881C684.611 798.935 683.516 798.462 682.221 798.462C682.221 798.462 682.047 798.462 681.698 798.462C681.4 798.462 681.25 798.462 681.25 798.462V797.715H687.226V803.167ZM691.633 803.167V797.715H697.608V798.462C697.558 798.462 697.384 798.462 697.085 798.462C696.786 798.462 696.637 798.462 696.637 798.462C695.342 798.462 694.222 798.935 693.276 799.881C692.379 800.777 691.906 801.873 691.857 803.167H691.633ZM785.222 828.19L784.326 839.916C783.031 842.058 781.388 843.975 779.396 845.668C777.454 847.311 775.139 848.631 772.45 849.627C769.811 850.573 766.773 851.046 763.337 851.046C758.159 850.996 753.553 849.851 749.519 847.61C745.486 845.369 742.324 842.232 740.033 838.198C737.792 834.115 736.672 829.31 736.672 823.783C736.672 818.355 737.792 813.624 740.033 809.591C742.274 805.508 745.411 802.346 749.444 800.105C753.528 797.814 758.308 796.669 763.785 796.669C767.47 796.669 770.782 797.167 773.72 798.163C776.707 799.109 779.297 800.304 781.488 801.748L782.982 812.28H782.309C781.214 807.898 778.973 804.587 775.587 802.346C772.201 800.055 768.267 798.91 763.785 798.91C759.403 798.91 755.594 799.956 752.357 802.047C749.171 804.089 746.681 806.977 744.888 810.711C743.145 814.396 742.274 818.728 742.274 823.708C742.274 828.688 743.145 833.045 744.888 836.779C746.681 840.514 749.146 843.427 752.283 845.518C755.47 847.61 759.155 848.705 763.337 848.805C766.873 848.805 770.134 848.158 773.122 846.863C776.16 845.518 778.699 843.352 780.741 840.365C782.782 837.327 784.077 833.269 784.625 828.19H785.222Z" fill="black"/>
<path d="M276.525 559.669L277.122 564.674L258.374 606.427C258.374 606.427 258.175 606.85 257.777 607.697C257.428 608.543 257.055 609.564 256.657 610.759C256.258 611.905 255.984 613 255.835 614.046H255.088L254.042 609.34L276.525 559.669ZM230.589 607.547V613H222.298V612.253C222.347 612.253 222.547 612.253 222.895 612.253C223.294 612.253 223.493 612.253 223.493 612.253C224.837 612.253 226.032 611.855 227.078 611.058C228.124 610.211 228.746 609.041 228.945 607.547H230.589ZM232.755 608.742C232.755 608.792 232.755 608.842 232.755 608.892C232.755 608.942 232.755 609.016 232.755 609.116C232.755 609.913 233.029 610.66 233.576 611.357C234.174 612.004 234.871 612.328 235.668 612.328H236.788V613H232.232V608.742H232.755ZM234.547 559.669H235.294L236.788 564.076L232.381 613H228.348L234.547 559.669ZM235.294 559.669L256.806 606.203L255.088 614.046L233.875 568.035L235.294 559.669ZM277.197 559.669L283.621 613H277.795L273.687 567.736L276.525 559.669H277.197ZM281.38 607.547H282.948C283.197 609.041 283.845 610.211 284.891 611.058C285.936 611.855 287.106 612.253 288.401 612.253C288.401 612.253 288.6 612.253 288.999 612.253C289.397 612.253 289.596 612.253 289.596 612.253V613H281.38V607.547ZM277.421 608.742H277.944V613H273.388V612.328H274.508C275.355 612.328 276.052 612.004 276.6 611.357C277.147 610.66 277.421 609.913 277.421 609.116C277.421 609.016 277.421 608.942 277.421 608.892C277.421 608.842 277.421 608.792 277.421 608.742ZM320.569 568.184V613H315.863V568.184H320.569ZM316.087 608.22V613H309.738V612.253C309.738 612.253 309.912 612.253 310.261 612.253C310.61 612.253 310.784 612.253 310.784 612.253C312.178 612.253 313.348 611.855 314.294 611.058C315.29 610.261 315.813 609.315 315.863 608.22H316.087ZM320.345 608.22H320.569C320.618 609.315 321.116 610.261 322.063 611.058C323.058 611.855 324.254 612.253 325.648 612.253C325.648 612.253 325.797 612.253 326.096 612.253C326.445 612.253 326.619 612.253 326.619 612.253L326.694 613H320.345V608.22ZM320.345 572.965V568.184H326.694L326.619 568.931C326.619 568.931 326.445 568.931 326.096 568.931C325.797 568.931 325.648 568.931 325.648 568.931C324.254 568.931 323.058 569.329 322.063 570.126C321.116 570.873 320.618 571.819 320.569 572.965H320.345ZM316.087 572.965H315.863C315.813 571.819 315.29 570.873 314.294 570.126C313.348 569.329 312.178 568.931 310.784 568.931C310.734 568.931 310.535 568.931 310.186 568.931C309.888 568.931 309.738 568.931 309.738 568.931V568.184H316.087V572.965ZM394.312 594.177L393.491 604.41C392.196 606.402 390.503 608.12 388.412 609.564C386.32 611.008 383.955 612.129 381.316 612.925C378.677 613.672 375.888 614.046 372.95 614.046C367.921 613.996 363.539 613.025 359.804 611.133C356.119 609.24 353.281 606.551 351.289 603.066C349.297 599.58 348.301 595.422 348.301 590.592C348.301 585.712 349.297 581.529 351.289 578.044C353.281 574.558 356.119 571.869 359.804 569.977C363.539 568.085 367.921 567.138 372.95 567.138C376.037 567.138 379.15 567.537 382.287 568.334C385.424 569.13 388.138 570.251 390.428 571.695L392.072 582.226H391.399C390.304 577.645 388.088 574.359 384.752 572.367C381.465 570.375 377.506 569.379 372.875 569.379C368.942 569.379 365.531 570.251 362.642 571.993C359.804 573.687 357.588 576.127 355.995 579.313C354.451 582.451 353.679 586.21 353.679 590.592C353.679 594.874 354.451 598.609 355.995 601.796C357.588 604.933 359.829 607.373 362.717 609.116C365.605 610.809 369.016 611.68 372.95 611.73C376.685 611.73 380.046 611.133 383.034 609.938C386.071 608.693 388.536 606.776 390.428 604.186C392.321 601.597 393.391 598.261 393.64 594.177H394.312ZM458.629 568.184V613H453.849V568.184H458.629ZM426.287 568.184V613H421.506V568.184H426.287ZM454.595 589.77V592.011H425.465V589.77H454.595ZM421.731 608.22V613H416.278V612.253C416.278 612.253 416.427 612.253 416.726 612.253C417.025 612.253 417.174 612.253 417.174 612.253C418.369 612.253 419.365 611.855 420.162 611.058C421.009 610.261 421.457 609.315 421.506 608.22H421.731ZM426.063 608.22H426.287C426.287 609.315 426.71 610.261 427.557 611.058C428.403 611.855 429.424 612.253 430.619 612.253C430.619 612.253 430.768 612.253 431.067 612.253C431.366 612.253 431.515 612.253 431.515 612.253V613H426.063V608.22ZM426.063 572.965V568.184H431.515V568.931C431.515 568.931 431.366 568.931 431.067 568.931C430.768 568.931 430.619 568.931 430.619 568.931C429.424 568.931 428.403 569.329 427.557 570.126C426.71 570.873 426.287 571.819 426.287 572.965H426.063ZM421.731 572.965H421.506C421.457 571.819 421.009 570.873 420.162 570.126C419.365 569.329 418.369 568.931 417.174 568.931C417.174 568.931 417.025 568.931 416.726 568.931C416.427 568.931 416.278 568.931 416.278 568.931V568.184H421.731V572.965ZM454.073 608.22V613H448.62V612.253C448.62 612.253 448.769 612.253 449.068 612.253C449.367 612.253 449.516 612.253 449.516 612.253C450.711 612.253 451.707 611.855 452.504 611.058C453.351 610.261 453.799 609.315 453.849 608.22H454.073ZM458.405 608.22H458.629C458.679 609.315 459.102 610.261 459.899 611.058C460.745 611.855 461.766 612.253 462.961 612.253C462.961 612.253 463.111 612.253 463.409 612.253C463.708 612.253 463.857 612.253 463.857 612.253V613H458.405V608.22ZM458.405 572.965V568.184H463.857V568.931C463.857 568.931 463.708 568.931 463.409 568.931C463.111 568.931 462.961 568.931 462.961 568.931C461.766 568.931 460.745 569.329 459.899 570.126C459.102 570.873 458.679 571.819 458.629 572.965H458.405ZM454.073 572.965H453.849C453.799 571.819 453.351 570.873 452.504 570.126C451.707 569.329 450.711 568.931 449.516 568.931C449.516 568.931 449.367 568.931 449.068 568.931C448.769 568.931 448.62 568.931 448.62 568.931V568.184H454.073V572.965ZM497.775 568.184V613H493.069V568.184H497.775ZM493.294 608.22V613H486.945V612.253C486.945 612.253 487.119 612.253 487.467 612.253C487.816 612.253 487.99 612.253 487.99 612.253C489.385 612.253 490.555 611.855 491.501 611.058C492.497 610.261 493.02 609.315 493.069 608.22H493.294ZM497.551 608.22H497.775C497.825 609.315 498.323 610.261 499.269 611.058C500.265 611.855 501.46 612.253 502.854 612.253C502.854 612.253 503.004 612.253 503.302 612.253C503.651 612.253 503.825 612.253 503.825 612.253L503.9 613H497.551V608.22ZM497.551 572.965V568.184H503.9L503.825 568.931C503.825 568.931 503.651 568.931 503.302 568.931C503.004 568.931 502.854 568.931 502.854 568.931C501.46 568.931 500.265 569.329 499.269 570.126C498.323 570.873 497.825 571.819 497.775 572.965H497.551ZM493.294 572.965H493.069C493.02 571.819 492.497 570.873 491.501 570.126C490.555 569.329 489.385 568.931 487.99 568.931C487.941 568.931 487.741 568.931 487.393 568.931C487.094 568.931 486.945 568.931 486.945 568.931V568.184H493.294V572.965ZM550.007 567.138C552.298 567.138 554.439 567.313 556.431 567.661C558.472 567.96 560.389 568.458 562.182 569.155C564.025 569.803 565.767 570.649 567.411 571.695L569.054 582.226H568.382C567.685 579.289 566.539 576.873 564.946 574.981C563.402 573.089 561.385 571.695 558.896 570.798C556.406 569.852 553.418 569.379 549.932 569.379C546.148 569.379 542.812 570.251 539.924 571.993C537.085 573.687 534.869 576.127 533.276 579.313C531.682 582.451 530.886 586.21 530.886 590.592C530.886 594.924 531.682 598.684 533.276 601.871C534.869 605.058 537.11 607.523 539.998 609.265C542.886 610.958 546.223 611.805 550.007 611.805C552.099 611.805 554.09 611.581 555.983 611.133C557.875 610.685 559.692 609.987 561.435 609.041C563.228 608.045 564.896 606.8 566.44 605.307L566.514 595.372C566.564 594.426 566.265 593.704 565.618 593.206C565.02 592.708 564.174 592.459 563.078 592.459H562.033V591.712H575.702V592.459H574.656C572.415 592.459 571.295 593.455 571.295 595.447V604.41C570.149 605.854 568.581 607.323 566.589 608.817C564.597 610.311 562.207 611.556 559.418 612.552C556.68 613.548 553.543 614.046 550.007 614.046C545.077 613.996 540.77 613.025 537.085 611.133C533.45 609.24 530.612 606.551 528.57 603.066C526.529 599.58 525.508 595.422 525.508 590.592C525.508 585.712 526.529 581.529 528.57 578.044C530.612 574.558 533.475 571.869 537.16 569.977C540.845 568.085 545.127 567.138 550.007 567.138ZM617.245 567.138L637.786 612.552H631.885L615.975 573.786L617.245 567.138ZM602.829 607.547C602.281 609.041 602.356 610.211 603.053 611.058C603.75 611.855 604.547 612.253 605.443 612.253H606.041V613H591.775V612.253C591.775 612.253 591.874 612.253 592.073 612.253C592.273 612.253 592.372 612.253 592.372 612.253C593.418 612.253 594.488 611.905 595.584 611.207C596.679 610.46 597.626 609.24 598.422 607.547H602.829ZM617.245 567.138L617.768 572.292L600.663 612.776H595.957L613.66 574.832C613.66 574.832 613.784 574.533 614.033 573.936C614.332 573.338 614.656 572.616 615.004 571.769C615.403 570.873 615.751 570.002 616.05 569.155C616.349 568.309 616.523 567.636 616.573 567.138H617.245ZM626.059 595.597V597.837H606.265V595.597H626.059ZM629.868 607.547H635.545C636.292 609.24 637.213 610.46 638.308 611.207C639.404 611.905 640.45 612.253 641.446 612.253C641.446 612.253 641.545 612.253 641.744 612.253C641.943 612.253 642.043 612.253 642.043 612.253V613H626.731V612.253H627.329C628.175 612.253 628.947 611.855 629.644 611.058C630.341 610.211 630.416 609.041 629.868 607.547ZM664.681 567.064L706.061 606.054L706.808 614.046L665.428 574.832L664.681 567.064ZM664.831 608.369V613H659.229V612.253C659.229 612.253 659.428 612.253 659.826 612.253C660.275 612.253 660.499 612.253 660.499 612.253C661.644 612.253 662.615 611.88 663.412 611.133C664.208 610.386 664.607 609.465 664.607 608.369H664.831ZM667.968 608.369C667.968 609.465 668.366 610.386 669.163 611.133C670.01 611.88 670.981 612.253 672.076 612.253C672.076 612.253 672.275 612.253 672.674 612.253C673.122 612.253 673.346 612.253 673.346 612.253V613H667.744V608.369H667.968ZM664.681 567.064L667.893 571.247L667.968 613H664.607V576.4C664.607 573.861 664.482 571.67 664.233 569.827C664.034 567.985 663.935 567.064 663.935 567.064H664.681ZM706.808 568.184V604.485C706.808 606.078 706.858 607.622 706.958 609.116C707.057 610.56 707.157 611.755 707.257 612.701C707.406 613.598 707.481 614.046 707.481 614.046H706.808L703.522 610.087V568.184H706.808ZM706.584 572.815V568.184H712.186V568.931C712.186 568.931 711.962 568.931 711.514 568.931C711.116 568.931 710.916 568.931 710.916 568.931C709.821 568.931 708.85 569.305 708.003 570.051C707.207 570.798 706.808 571.72 706.808 572.815H706.584ZM703.522 572.815C703.472 571.72 703.049 570.798 702.252 570.051C701.455 569.305 700.484 568.931 699.339 568.931C699.339 568.931 699.115 568.931 698.667 568.931C698.268 568.931 698.069 568.931 698.069 568.931V568.184H703.671V572.815H703.522Z" fill="white"/>
</svg>
