<svg width="692" height="692" viewBox="0 0 692 692" fill="none" xmlns="http://www.w3.org/2000/svg">
<rect x="264" y="160" width="294" height="154" fill="white"/>
<mask id="path-2-outside-1_15_323" maskUnits="userSpaceOnUse" x="56" y="25" width="570" height="416" fill="black">
<rect fill="white" x="56" y="25" width="570" height="416"/>
<path d="M515.697 167.35V138.405C515.697 137.918 510.35 138.984 512.65 130.788H550.735C549.014 148.886 543.469 188.967 548.374 205.512C551.711 216.755 597.551 258.618 607.057 273.273C607.805 274.418 614.154 281.606 609.387 281.606H575.11V411.111C592.399 403.358 590.269 426.327 588.821 426.331H92.1875C90.6641 426.331 88.4249 403.129 107.422 411.097V365.394C107.417 364.48 89.9327 366.719 89.125 364.617C88.2262 362.302 107.421 334.957 107.422 332.641V264.087C107.422 263.63 109.341 262.914 108.945 261.802H80L135.071 159.961L311.985 159.413L410.611 47L515.697 167.35ZM119.608 366.155V411.097H119.609V366.154L119.608 366.155ZM486.752 313.598H534.739L537.024 311.312V269.419H486.752V313.598ZM285.661 312.074H334.41V269.419H285.661V312.074ZM346.598 312.074H375.543V269.419H346.598V312.074ZM447.144 312.074H474.564V269.419H447.144V312.074ZM241.437 259.471L121.117 261.802L124.94 269.403L248.749 269.053L409.819 82.0693L574.379 270.912L587.282 272.45L411.343 66.8506L241.437 259.471ZM288.708 255.708H334.41V202.389L288.708 255.708ZM346.613 255.708H393.823L346.613 208.482V255.708ZM427.339 255.708H474.564V206.959L427.339 255.708ZM486.752 255.708H533.978L486.752 203.912V255.708ZM420.483 196.295C420.026 196.295 419.31 194.375 418.198 194.771V243.521L461.615 196.295H420.483ZM402.964 194.771C401.852 194.376 401.136 196.295 400.679 196.295H355.738L402.964 241.997V194.771ZM352.691 179.537H402.964V123.171L352.691 179.537ZM418.198 179.537H468.471L418.198 123.171V179.537Z"/>
</mask>
<path d="M515.697 167.35V138.405C515.697 137.918 510.35 138.984 512.65 130.788H550.735C549.014 148.886 543.469 188.967 548.374 205.512C551.711 216.755 597.551 258.618 607.057 273.273C607.805 274.418 614.154 281.606 609.387 281.606H575.11V411.111C592.399 403.358 590.269 426.327 588.821 426.331H92.1875C90.6641 426.331 88.4249 403.129 107.422 411.097V365.394C107.417 364.48 89.9327 366.719 89.125 364.617C88.2262 362.302 107.421 334.957 107.422 332.641V264.087C107.422 263.63 109.341 262.914 108.945 261.802H80L135.071 159.961L311.985 159.413L410.611 47L515.697 167.35ZM119.608 366.155V411.097H119.609V366.154L119.608 366.155ZM486.752 313.598H534.739L537.024 311.312V269.419H486.752V313.598ZM285.661 312.074H334.41V269.419H285.661V312.074ZM346.598 312.074H375.543V269.419H346.598V312.074ZM447.144 312.074H474.564V269.419H447.144V312.074ZM241.437 259.471L121.117 261.802L124.94 269.403L248.749 269.053L409.819 82.0693L574.379 270.912L587.282 272.45L411.343 66.8506L241.437 259.471ZM288.708 255.708H334.41V202.389L288.708 255.708ZM346.613 255.708H393.823L346.613 208.482V255.708ZM427.339 255.708H474.564V206.959L427.339 255.708ZM486.752 255.708H533.978L486.752 203.912V255.708ZM420.483 196.295C420.026 196.295 419.31 194.375 418.198 194.771V243.521L461.615 196.295H420.483ZM402.964 194.771C401.852 194.376 401.136 196.295 400.679 196.295H355.738L402.964 241.997V194.771ZM352.691 179.537H402.964V123.171L352.691 179.537ZM418.198 179.537H468.471L418.198 123.171V179.537Z" fill="black"/>
<path d="M515.697 167.35L505.152 176.558L529.697 204.669V167.35H515.697ZM512.65 130.788V116.788H502.039L499.171 127.005L512.65 130.788ZM550.735 130.788L564.672 132.114L566.13 116.788H550.735V130.788ZM548.374 205.512L534.952 209.491L534.953 209.495L548.374 205.512ZM607.057 273.273L595.311 280.892L595.325 280.913L595.339 280.934L607.057 273.273ZM575.11 281.606V267.606H561.11V281.606H575.11ZM575.11 411.111H561.11V432.733L580.839 423.886L575.11 411.111ZM588.821 426.331V440.331H588.84L588.859 440.331L588.821 426.331ZM107.422 411.097L102.007 424.007L121.422 432.15V411.097H107.422ZM107.422 365.394H121.422V365.358L121.422 365.322L107.422 365.394ZM89.125 364.617L102.193 359.596L102.185 359.573L102.176 359.551L89.125 364.617ZM107.422 332.641L121.422 332.646V332.641H107.422ZM108.945 261.802L122.135 257.108L118.823 247.802H108.945V261.802ZM80 261.802L67.6852 255.142L56.5135 275.802H80V261.802ZM135.071 159.961L135.028 145.961L126.712 145.987L122.757 153.302L135.071 159.961ZM311.985 159.413L312.029 173.413L318.344 173.393L322.509 168.646L311.985 159.413ZM410.611 47L421.157 37.7919L410.636 25.7433L400.088 37.7669L410.611 47ZM119.608 366.155L109.709 356.256L105.608 360.356V366.155H119.608ZM119.608 411.097H105.608V425.097H119.608V411.097ZM119.609 411.097V425.097H133.609V411.097H119.609ZM119.609 366.154H133.609V332.355L109.71 356.255L119.609 366.154ZM486.752 313.598H472.752V327.598H486.752V313.598ZM534.739 313.598V327.598H540.538L544.639 323.497L534.739 313.598ZM537.024 311.312L546.924 321.212L551.024 317.111V311.312H537.024ZM537.024 269.419H551.024V255.419H537.024V269.419ZM486.752 269.419V255.419H472.752V269.419H486.752ZM285.661 312.074H271.661V326.074H285.661V312.074ZM334.41 312.074V326.074H348.41V312.074H334.41ZM334.41 269.419H348.41V255.419H334.41V269.419ZM285.661 269.419V255.419H271.661V269.419H285.661ZM346.598 312.074H332.598V326.074H346.598V312.074ZM375.543 312.074V326.074H389.543V312.074H375.543ZM375.543 269.419H389.543V255.419H375.543V269.419ZM346.598 269.419V255.419H332.598V269.419H346.598ZM447.144 312.074H433.144V326.074H447.144V312.074ZM474.564 312.074V326.074H488.564V312.074H474.564ZM474.564 269.419H488.564V255.419H474.564V269.419ZM447.144 269.419V255.419H433.144V269.419H447.144ZM241.437 259.471L241.708 273.468L247.863 273.349L251.936 268.732L241.437 259.471ZM121.117 261.802L120.846 247.804L98.6227 248.235L108.61 268.092L121.117 261.802ZM124.94 269.403L112.433 275.694L116.323 283.428L124.98 283.403L124.94 269.403ZM248.749 269.053L248.789 283.053L255.183 283.035L259.356 278.19L248.749 269.053ZM409.819 82.0693L420.374 72.8717L409.758 60.6894L399.212 72.9322L409.819 82.0693ZM574.379 270.912L563.824 280.11L567.367 284.175L572.722 284.814L574.379 270.912ZM587.282 272.45L585.625 286.352L621.237 290.597L597.919 263.348L587.282 272.45ZM411.343 66.8506L421.98 57.7481L411.503 45.5052L400.844 57.5895L411.343 66.8506ZM288.708 255.708L278.078 246.597L258.269 269.708H288.708V255.708ZM334.41 255.708V269.708H348.41V255.708H334.41ZM334.41 202.389H348.41V164.543L323.781 193.278L334.41 202.389ZM346.613 255.708H332.613V269.708H346.613V255.708ZM393.823 255.708V269.708H427.614L403.724 245.81L393.823 255.708ZM346.613 208.482L356.514 198.585L332.613 174.676V208.482H346.613ZM427.339 255.708L417.284 245.967L394.284 269.708H427.339V255.708ZM474.564 255.708V269.708H488.564V255.708H474.564ZM474.564 206.959H488.564V172.386L464.509 197.218L474.564 206.959ZM486.752 255.708H472.752V269.708H486.752V255.708ZM533.978 255.708V269.708H565.688L544.323 246.275L533.978 255.708ZM486.752 203.912L497.097 194.48L472.752 167.778V203.912H486.752ZM420.483 196.295L420.478 210.295H420.483V196.295ZM418.198 194.771L413.501 181.583L404.198 184.896V194.771H418.198ZM418.198 243.521H404.198V279.434L428.505 252.996L418.198 243.521ZM461.615 196.295L471.922 205.77L493.504 182.295H461.615V196.295ZM402.964 194.771H416.964V184.894L407.658 181.582L402.964 194.771ZM355.738 196.295V182.295H321.14L346.002 206.355L355.738 196.295ZM402.964 241.997L393.228 252.058L416.964 275.028V241.997H402.964ZM352.691 179.537L342.243 170.219L321.446 193.537H352.691V179.537ZM402.964 179.537V193.537H416.964V179.537H402.964ZM402.964 123.171H416.964V86.4407L392.516 113.852L402.964 123.171ZM418.198 179.537H404.198V193.537H418.198V179.537ZM468.471 179.537V193.537H499.716L478.919 170.219L468.471 179.537ZM418.198 123.171L428.646 113.852L404.198 86.4407V123.171H418.198ZM515.697 167.35H529.697V138.405H515.697H501.697V167.35H515.697ZM515.697 138.405H529.697C529.697 136.757 529.407 135.098 528.818 133.511C528.236 131.942 527.436 130.642 526.604 129.606C525.021 127.631 523.279 126.548 522.321 126.028C521.301 125.474 520.421 125.158 519.928 124.997C519.399 124.823 518.957 124.712 518.693 124.65C518.219 124.538 517.778 124.459 517.754 124.455C517.615 124.429 517.675 124.44 517.745 124.455C517.989 124.505 519.911 124.879 521.925 126.451C522.996 127.286 523.967 128.36 524.712 129.644C525.447 130.91 525.805 132.11 525.963 133.052C526.251 134.768 525.863 135.52 526.13 134.571L512.65 130.788L499.171 127.005C498.287 130.154 497.705 133.846 498.349 137.683C499.068 141.972 501.237 145.823 504.698 148.524C507.76 150.914 510.876 151.625 512.05 151.869C512.353 151.932 512.629 151.982 512.684 151.992C512.854 152.024 512.583 151.977 512.251 151.898C512.155 151.876 510.659 151.557 508.955 150.631C508.035 150.132 506.323 149.072 504.76 147.122C503 144.927 501.697 141.912 501.697 138.405H515.697ZM512.65 130.788V144.788H550.735V130.788V116.788H512.65V130.788ZM550.735 130.788L536.798 129.462C535.999 137.865 534.104 153.238 533.103 167.771C532.594 175.161 532.279 182.755 532.435 189.716C532.586 196.459 533.19 203.55 534.952 209.491L548.374 205.512L561.796 201.532C561.105 199.201 560.563 195.078 560.428 189.087C560.298 183.314 560.557 176.655 561.037 169.695C562.012 155.526 563.75 141.809 564.672 132.114L550.735 130.788ZM548.374 205.512L534.953 209.495C536.069 213.256 538.331 216.728 540.035 219.136C541.982 221.888 544.396 224.872 546.984 227.893C552.17 233.943 558.747 240.933 565.269 247.774C571.904 254.732 578.475 261.529 584.058 267.579C589.851 273.856 593.683 278.382 595.311 280.892L607.057 273.273L618.802 265.655C615.677 260.837 610.214 254.635 604.634 248.589C598.845 242.316 591.965 235.197 585.534 228.452C578.992 221.59 572.889 215.09 568.244 209.671C565.917 206.957 564.128 204.711 562.893 202.965C561.413 200.873 561.514 200.579 561.795 201.528L548.374 205.512ZM607.057 273.273L595.339 280.934C595.802 281.643 596.39 282.392 596.478 282.506C596.747 282.855 596.964 283.134 597.206 283.457C597.44 283.769 597.64 284.047 597.807 284.291C597.888 284.41 597.951 284.508 597.999 284.583C598.022 284.621 598.04 284.65 598.052 284.671C598.065 284.692 598.071 284.702 598.071 284.702C598.071 284.702 598.069 284.698 598.065 284.692C598.062 284.685 598.056 284.675 598.049 284.661C598.035 284.634 598.012 284.588 597.982 284.525C597.928 284.409 597.824 284.176 597.709 283.841C597.553 283.391 596.972 281.644 597.198 279.186C597.473 276.189 598.982 272.424 602.604 269.864C605.638 267.718 608.526 267.606 609.387 267.606V281.606V295.606C611.439 295.606 615.171 295.27 618.768 292.727C622.952 289.769 624.742 285.434 625.081 281.745C625.37 278.595 624.635 276.035 624.175 274.702C623.659 273.207 623.016 271.942 622.509 271.036C621.501 269.232 620.334 267.628 619.608 266.66C619.224 266.148 618.859 265.677 618.656 265.414C618.272 264.916 618.498 265.19 618.775 265.613L607.057 273.273ZM609.387 281.606V267.606H575.11V281.606V295.606H609.387V281.606ZM575.11 281.606H561.11V411.111H575.11H589.11V281.606H575.11ZM575.11 411.111L580.839 423.886C583.134 422.856 581.616 424.247 578.679 422.833C575.932 421.511 575.449 419.397 575.594 419.875C575.701 420.225 575.807 421.084 575.751 421.946C575.723 422.37 575.688 422.285 575.827 421.762C575.869 421.603 576.123 420.62 576.806 419.368C577.133 418.769 577.916 417.435 579.353 416.08C580.76 414.753 583.969 412.344 588.784 412.331L588.821 426.331L588.859 440.331C593.764 440.318 597.065 437.864 598.564 436.45C600.092 435.008 600.967 433.546 601.385 432.78C602.25 431.195 602.682 429.727 602.887 428.954C603.352 427.205 603.585 425.385 603.691 423.776C603.901 420.572 603.731 416.173 602.39 411.75C601.087 407.454 597.986 401.051 590.821 397.603C583.466 394.063 575.731 395.49 569.382 398.337L575.11 411.111ZM588.821 426.331V412.331H92.1875V426.331V440.331H588.821V426.331ZM92.1875 426.331V412.331C96.8055 412.331 99.9576 414.548 101.427 415.875C102.901 417.206 103.718 418.535 104.071 419.156C104.8 420.44 105.075 421.457 105.126 421.643C105.283 422.217 105.251 422.348 105.227 421.963C105.178 421.174 105.296 420.436 105.372 420.21C105.438 420.016 104.837 421.898 102.372 422.965C99.9869 423.997 99.1689 422.817 102.007 424.007L107.422 411.097L112.837 398.186C106.176 395.393 98.5144 394.125 91.2535 397.267C83.9136 400.443 80.4058 406.632 78.847 411.242C77.2991 415.821 77.0749 420.385 77.2806 423.698C77.3841 425.364 77.6278 427.245 78.1252 429.056C78.346 429.861 78.8064 431.369 79.7264 432.988C80.1749 433.778 81.0889 435.236 82.6593 436.654C84.2255 438.069 87.4743 440.331 92.1875 440.331V426.331ZM107.422 411.097H121.422V365.394H107.422H93.4219V411.097H107.422ZM107.422 365.394L121.422 365.322C121.389 358.826 117.24 355.098 115.244 353.74C113.301 352.419 111.492 351.906 110.832 351.73C109.32 351.327 108.004 351.241 107.549 351.212C106.37 351.138 105.124 351.163 104.263 351.189C102.581 351.238 99.7977 351.39 98.0029 351.463C95.7783 351.554 94.1235 351.577 93.1212 351.52C92.5389 351.486 92.8493 351.459 93.6046 351.651C93.9639 351.743 95.0875 352.046 96.4496 352.83C97.7009 353.55 100.633 355.535 102.193 359.596L89.125 364.617L76.0566 369.639C77.7179 373.962 80.8813 376.176 82.4774 377.095C84.1845 378.078 85.7665 378.548 86.6812 378.782C88.5473 379.258 90.3563 379.407 91.5267 379.474C94.0301 379.617 96.8982 379.531 99.1462 379.44C101.824 379.33 103.463 379.224 105.086 379.177C105.878 379.153 106.005 379.17 105.786 379.156C105.694 379.151 105.479 379.135 105.181 379.097C104.922 379.063 104.35 378.98 103.617 378.785C103.085 378.643 101.375 378.17 99.4986 376.894C97.5688 375.581 93.4548 371.904 93.4221 365.465L107.422 365.394ZM89.125 364.617L102.176 359.551C103.242 362.296 103.123 364.619 103.05 365.489C102.962 366.547 102.763 367.322 102.671 367.653C102.486 368.316 102.32 368.64 102.417 368.425C102.575 368.074 102.985 367.271 103.757 365.92C105.256 363.3 107.413 359.84 109.771 356.109C112.043 352.513 114.525 348.632 116.386 345.582C117.312 344.066 118.221 342.533 118.932 341.21C119.276 340.568 119.702 339.742 120.077 338.864C120.264 338.429 120.527 337.775 120.764 336.993C120.938 336.418 121.421 334.77 121.422 332.646L107.422 332.641L93.4219 332.636C93.4226 330.656 93.8677 329.201 93.9693 328.867C94.134 328.324 94.2895 327.955 94.3355 327.848C94.4302 327.627 94.4439 327.627 94.2654 327.96C93.9299 328.584 93.3462 329.586 92.4863 330.995C90.7766 333.796 88.5155 337.33 86.1016 341.15C83.7731 344.834 81.2997 348.788 79.4519 352.019C78.551 353.594 77.6087 355.325 76.8893 356.922C76.547 357.681 76.0609 358.832 75.6941 360.151C75.5109 360.81 75.2545 361.871 75.1466 363.168C75.0543 364.277 74.952 366.793 76.0737 369.683L89.125 364.617ZM107.422 332.641H121.422V264.087H107.422H93.4219V332.641H107.422ZM107.422 264.087H121.422C121.422 266.531 120.78 268.494 120.182 269.806C119.594 271.096 118.925 272.029 118.492 272.578C117.683 273.603 116.923 274.24 116.822 274.327C116.662 274.464 116.506 274.586 116.718 274.417C116.829 274.329 117.161 274.066 117.532 273.743C117.907 273.415 118.472 272.899 119.08 272.218C119.681 271.544 120.48 270.54 121.199 269.204C121.934 267.84 122.647 266.018 122.902 263.801C123.164 261.521 122.892 259.236 122.135 257.108L108.945 261.802L95.7557 266.496C95.0971 264.645 94.8521 262.626 95.0853 260.6C95.3111 258.637 95.9388 257.056 96.5493 255.923C97.1446 254.818 97.7793 254.033 98.1946 253.568C98.6164 253.096 98.9718 252.777 99.132 252.637C99.2877 252.501 99.3982 252.416 99.2988 252.495C99.2801 252.51 99.1721 252.596 99.0794 252.67C98.9769 252.753 98.8065 252.891 98.6093 253.06C98.4157 253.226 98.1281 253.479 97.8012 253.799C97.4843 254.109 97.0172 254.592 96.5153 255.228C96.0302 255.842 95.3207 256.84 94.7047 258.191C94.0787 259.564 93.4219 261.586 93.4219 264.087H107.422ZM108.945 261.802V247.802H80V261.802V275.802H108.945V261.802ZM80 261.802L92.3148 268.461L147.386 166.62L135.071 159.961L122.757 153.302L67.6852 255.142L80 261.802ZM135.071 159.961L135.115 173.961L312.029 173.413L311.985 159.413L311.942 145.413L135.028 145.961L135.071 159.961ZM311.985 159.413L322.509 168.646L421.135 56.2331L410.611 47L400.088 37.7669L301.462 150.18L311.985 159.413ZM410.611 47L400.066 56.2081L505.152 176.558L515.697 167.35L526.243 158.141L421.157 37.7919L410.611 47ZM119.608 366.155H105.608V411.097H119.608H133.608V366.155H119.608ZM119.608 411.097V425.097H119.609V411.097V397.097H119.608V411.097ZM119.609 411.097H133.609V366.154H119.609H105.609V411.097H119.609ZM119.609 366.154L109.71 356.255L109.709 356.256L119.608 366.155L129.508 376.055L129.509 376.054L119.609 366.154ZM486.752 313.598V327.598H534.739V313.598V299.598H486.752V313.598ZM534.739 313.598L544.639 323.497L546.924 321.212L537.024 311.312L527.125 301.413L524.84 303.698L534.739 313.598ZM537.024 311.312H551.024V269.419H537.024H523.024V311.312H537.024ZM537.024 269.419V255.419H486.752V269.419V283.419H537.024V269.419ZM486.752 269.419H472.752V313.598H486.752H500.752V269.419H486.752ZM285.661 312.074V326.074H334.41V312.074V298.074H285.661V312.074ZM334.41 312.074H348.41V269.419H334.41H320.41V312.074H334.41ZM334.41 269.419V255.419H285.661V269.419V283.419H334.41V269.419ZM285.661 269.419H271.661V312.074H285.661H299.661V269.419H285.661ZM346.598 312.074V326.074H375.543V312.074V298.074H346.598V312.074ZM375.543 312.074H389.543V269.419H375.543H361.543V312.074H375.543ZM375.543 269.419V255.419H346.598V269.419V283.419H375.543V269.419ZM346.598 269.419H332.598V312.074H346.598H360.598V269.419H346.598ZM447.144 312.074V326.074H474.564V312.074V298.074H447.144V312.074ZM474.564 312.074H488.564V269.419H474.564H460.564V312.074H474.564ZM474.564 269.419V255.419H447.144V269.419V283.419H474.564V269.419ZM447.144 269.419H433.144V312.074H447.144H461.144V269.419H447.144ZM241.437 259.471L241.165 245.473L120.846 247.804L121.117 261.802L121.388 275.799L241.708 273.468L241.437 259.471ZM121.117 261.802L108.61 268.092L112.433 275.694L124.94 269.403L137.448 263.113L133.624 255.511L121.117 261.802ZM124.94 269.403L124.98 283.403L248.789 283.053L248.749 269.053L248.709 255.053L124.901 255.403L124.94 269.403ZM248.749 269.053L259.356 278.19L420.427 91.2065L409.819 82.0693L399.212 72.9322L238.142 259.916L248.749 269.053ZM409.819 82.0693L399.265 91.2669L563.824 280.11L574.379 270.912L584.934 261.715L420.374 72.8717L409.819 82.0693ZM574.379 270.912L572.722 284.814L585.625 286.352L587.282 272.45L588.939 258.549L576.036 257.011L574.379 270.912ZM587.282 272.45L597.919 263.348L421.98 57.7481L411.343 66.8506L400.706 75.953L576.645 281.553L587.282 272.45ZM411.343 66.8506L400.844 57.5895L230.937 250.21L241.437 259.471L251.936 268.732L421.842 76.1117L411.343 66.8506ZM288.708 255.708V269.708H334.41V255.708V241.708H288.708V255.708ZM334.41 255.708H348.41V202.389H334.41H320.41V255.708H334.41ZM334.41 202.389L323.781 193.278L278.078 246.597L288.708 255.708L299.338 264.819L345.04 211.5L334.41 202.389ZM346.613 255.708V269.708H393.823V255.708V241.708H346.613V255.708ZM393.823 255.708L403.724 245.81L356.514 198.585L346.613 208.482L336.712 218.38L383.922 265.606L393.823 255.708ZM346.613 208.482H332.613V255.708H346.613H360.613V208.482H346.613ZM427.339 255.708V269.708H474.564V255.708V241.708H427.339V255.708ZM474.564 255.708H488.564V206.959H474.564H460.564V255.708H474.564ZM474.564 206.959L464.509 197.218L417.284 245.967L427.339 255.708L437.394 265.449L484.62 216.7L474.564 206.959ZM486.752 255.708V269.708H533.978V255.708V241.708H486.752V255.708ZM533.978 255.708L544.323 246.275L497.097 194.48L486.752 203.912L476.407 213.345L523.632 265.141L533.978 255.708ZM486.752 203.912H472.752V255.708H486.752H500.752V203.912H486.752ZM420.483 196.295L420.489 182.295C422.932 182.296 424.894 182.938 426.206 183.536C427.495 184.125 428.428 184.793 428.977 185.227C430.001 186.035 430.638 186.795 430.725 186.896C430.861 187.055 430.983 187.212 430.814 187C430.726 186.888 430.463 186.556 430.14 186.185C429.812 185.809 429.295 185.245 428.614 184.637C427.94 184.035 426.936 183.237 425.599 182.517C424.235 181.782 422.412 181.069 420.195 180.815C417.914 180.553 415.629 180.825 413.501 181.583L418.198 194.771L422.896 207.96C421.045 208.619 419.026 208.865 416.999 208.632C415.036 208.406 413.455 207.779 412.321 207.168C411.215 206.573 410.43 205.938 409.965 205.522C409.492 205.1 409.173 204.745 409.033 204.584C408.898 204.428 408.812 204.318 408.891 204.417C408.906 204.436 408.991 204.544 409.066 204.636C409.148 204.739 409.286 204.909 409.455 205.106C409.621 205.3 409.874 205.587 410.194 205.914C410.504 206.231 410.987 206.698 411.622 207.2C412.237 207.685 413.233 208.394 414.584 209.01C415.956 209.637 417.978 210.294 420.478 210.295L420.483 196.295ZM418.198 194.771H404.198V243.521H418.198H432.198V194.771H418.198ZM418.198 243.521L428.505 252.996L471.922 205.77L461.615 196.295L451.309 186.82L407.892 234.045L418.198 243.521ZM461.615 196.295V182.295H420.483V196.295V210.295H461.615V196.295ZM402.964 194.771L407.658 181.582C405.53 180.824 403.245 180.553 400.965 180.815C398.748 181.07 396.925 181.783 395.562 182.518C394.226 183.237 393.222 184.035 392.548 184.637C391.867 185.245 391.35 185.809 391.023 186.185C390.7 186.556 390.437 186.888 390.348 186.999C390.18 187.211 390.302 187.055 390.438 186.895C390.526 186.793 391.163 186.034 392.187 185.225C392.736 184.792 393.67 184.123 394.96 183.535C396.272 182.937 398.235 182.295 400.679 182.295V196.295V210.295C403.179 210.295 405.202 209.638 406.575 209.012C407.926 208.396 408.923 207.687 409.538 207.201C410.173 206.7 410.656 206.233 410.967 205.916C411.287 205.589 411.54 205.301 411.706 205.107C411.875 204.91 412.013 204.74 412.095 204.637C412.17 204.545 412.256 204.437 412.27 204.418C412.349 204.319 412.264 204.429 412.128 204.585C411.989 204.745 411.67 205.1 411.197 205.522C410.732 205.937 409.947 206.572 408.842 207.168C407.709 207.778 406.129 208.406 404.166 208.632C402.14 208.865 400.12 208.62 398.27 207.961L402.964 194.771ZM400.679 196.295V182.295H355.738V196.295V210.295H400.679V196.295ZM355.738 196.295L346.002 206.355L393.228 252.058L402.964 241.997L412.7 231.937L365.474 186.234L355.738 196.295ZM402.964 241.997H416.964V194.771H402.964H388.964V241.997H402.964ZM352.691 179.537V193.537H402.964V179.537V165.537H352.691V179.537ZM402.964 179.537H416.964V123.171H402.964H388.964V179.537H402.964ZM402.964 123.171L392.516 113.852L342.243 170.219L352.691 179.537L363.14 188.856L413.412 132.489L402.964 123.171ZM418.198 179.537V193.537H468.471V179.537V165.537H418.198V179.537ZM468.471 179.537L478.919 170.219L428.646 113.852L418.198 123.171L407.75 132.489L458.023 188.856L468.471 179.537ZM418.198 123.171H404.198V179.537H418.198H432.198V123.171H418.198Z" fill="white" mask="url(#path-2-outside-1_15_323)"/>
<rect x="383.43" y="270" width="19" height="42" fill="white"/>
<rect x="418.43" y="270" width="19" height="42" fill="white"/>
<rect x="122.656" y="286.176" width="126.444" height="27.4215" fill="white"/>
<path d="M192.425 378.555V388.511C191.499 389.717 190.253 390.924 188.684 392.131C187.115 393.337 185.184 394.343 182.892 395.147C180.639 395.912 177.985 396.294 174.928 396.294C170.664 396.253 166.903 395.328 163.645 393.518C160.387 391.668 157.833 389.114 155.983 385.856C154.173 382.558 153.268 378.716 153.268 374.332C153.268 369.948 154.173 366.106 155.983 362.808C157.833 359.51 160.387 356.956 163.645 355.146C166.903 353.295 170.664 352.37 174.928 352.37C177.14 352.37 179.131 352.551 180.901 352.913C182.67 353.275 184.259 353.778 185.667 354.422C187.115 355.025 188.422 355.709 189.589 356.473L190.796 364.98H190.253C189.649 362.647 188.644 360.696 187.236 359.128C185.868 357.519 184.139 356.292 182.047 355.447C179.955 354.603 177.582 354.18 174.928 354.18C171.549 354.18 168.572 355.025 165.998 356.714C163.424 358.404 161.413 360.757 159.965 363.773C158.517 366.79 157.793 370.31 157.793 374.332C157.793 378.354 158.517 381.874 159.965 384.89C161.413 387.907 163.424 390.26 165.998 391.95C168.572 393.599 171.549 394.443 174.928 394.484C176.697 394.484 178.387 394.283 179.996 393.88C181.645 393.438 183.193 392.834 184.641 392.07C186.089 391.266 187.377 390.321 188.503 389.235L188.563 378.555C188.563 376.745 187.537 375.84 185.486 375.84H184.521V375.237H196.346V375.84H195.441C193.35 375.84 192.344 376.745 192.425 378.555ZM207.657 353.215H216.164C217.974 353.215 219.603 353.476 221.051 353.999C222.539 354.522 223.786 355.286 224.792 356.292C225.797 357.257 226.561 358.444 227.084 359.852C227.647 361.219 227.929 362.788 227.929 364.558C227.929 366.488 227.466 368.339 226.541 370.109C225.656 371.878 224.43 373.326 222.861 374.453C221.332 375.539 219.603 376.082 217.672 376.082C218.356 376.363 219.1 376.946 219.905 377.831C220.709 378.676 221.413 379.501 222.016 380.305C222.016 380.305 222.278 380.707 222.801 381.512C223.364 382.276 224.047 383.221 224.852 384.347C225.697 385.474 226.541 386.58 227.386 387.666C228.231 388.752 228.955 389.617 229.558 390.26C230.362 391.145 231.167 391.929 231.971 392.613C232.776 393.297 233.641 393.84 234.566 394.242C235.531 394.645 236.597 394.846 237.764 394.846V395.449H234.445C232.595 395.449 230.986 395.167 229.618 394.604C228.291 394.041 227.165 393.357 226.24 392.553C225.315 391.708 224.53 390.904 223.887 390.14C223.766 389.979 223.424 389.516 222.861 388.752C222.338 387.988 221.694 387.083 220.93 386.037C220.206 384.951 219.482 383.885 218.758 382.839C218.034 381.793 217.411 380.908 216.888 380.184C216.365 379.42 216.063 378.978 215.983 378.857C215.219 377.851 214.374 376.926 213.449 376.082C212.524 375.237 211.518 374.815 210.432 374.815V374.211C210.432 374.211 210.734 374.231 211.337 374.272C211.981 374.272 212.745 374.251 213.63 374.211C214.676 374.171 215.822 374.01 217.069 373.729C218.316 373.447 219.482 372.864 220.568 371.979C221.654 371.094 222.479 369.747 223.042 367.936C223.163 367.494 223.263 366.951 223.344 366.307C223.424 365.624 223.444 364.96 223.404 364.316C223.364 361.581 222.66 359.409 221.292 357.8C219.965 356.151 218.175 355.266 215.922 355.146C214.796 355.065 213.63 355.045 212.423 355.085C211.257 355.085 210.271 355.085 209.467 355.085C208.662 355.085 208.26 355.085 208.26 355.085C208.26 355.045 208.2 354.884 208.079 354.603C207.999 354.281 207.898 353.979 207.777 353.698C207.697 353.376 207.657 353.215 207.657 353.215ZM208.441 353.215V395.449H204.519V353.215H208.441ZM204.7 391.045V395.449H199.874V394.846C199.874 394.846 199.994 394.846 200.236 394.846C200.517 394.846 200.658 394.846 200.658 394.846C201.704 394.846 202.589 394.484 203.313 393.76C204.077 392.995 204.479 392.09 204.519 391.045H204.7ZM204.7 357.619H204.519C204.479 356.573 204.077 355.689 203.313 354.965C202.589 354.2 201.704 353.818 200.658 353.818C200.658 353.818 200.517 353.818 200.236 353.818C199.994 353.818 199.874 353.818 199.874 353.818V353.215H204.7V357.619ZM208.26 391.045H208.441C208.441 392.09 208.823 392.995 209.587 393.76C210.352 394.484 211.257 394.846 212.302 394.846C212.302 394.846 212.423 394.846 212.664 394.846C212.906 394.846 213.026 394.846 213.026 394.846V395.449H208.26V391.045ZM247.446 353.215V395.449H243.525V353.215H247.446ZM263.737 393.579V395.449H247.265V393.579H263.737ZM261.142 373.729V375.539H247.265V373.729H261.142ZM263.737 353.215V355.085H247.265V353.215H263.737ZM267.417 385.675L263.918 395.449H253.902L256.074 393.579C258.206 393.579 259.935 393.257 261.263 392.613C262.63 391.929 263.737 390.984 264.581 389.778C265.426 388.571 266.17 387.203 266.814 385.675H267.417ZM261.142 375.418V379.4H260.539V378.495C260.539 377.691 260.257 377.007 259.694 376.444C259.131 375.84 258.447 375.539 257.643 375.539V375.418H261.142ZM261.142 369.867V373.849H257.643V373.729C258.447 373.688 259.131 373.387 259.694 372.824C260.257 372.22 260.539 371.516 260.539 370.712V369.867H261.142ZM263.737 354.904V359.731H263.133V358.645C263.133 357.68 262.791 356.855 262.108 356.171C261.424 355.447 260.579 355.065 259.573 355.025V354.904H263.737ZM263.737 352.129V353.879L256.376 353.215C257.261 353.215 258.186 353.155 259.151 353.034C260.157 352.913 261.082 352.772 261.927 352.612C262.771 352.451 263.375 352.29 263.737 352.129ZM243.706 391.045V395.449H238.879V394.846C238.879 394.846 238.999 394.846 239.241 394.846C239.522 394.846 239.663 394.846 239.663 394.846C240.709 394.846 241.594 394.484 242.318 393.76C243.082 392.995 243.484 392.09 243.525 391.045H243.706ZM243.706 357.619H243.525C243.525 356.573 243.142 355.689 242.378 354.965C241.614 354.2 240.709 353.818 239.663 353.818C239.663 353.818 239.542 353.818 239.301 353.818C239.06 353.818 238.939 353.818 238.939 353.818L238.879 353.215H243.706V357.619ZM291.741 352.37L309.6 395.087H304.471L290.534 358.102L291.741 352.37ZM278.769 391.045C278.487 391.849 278.447 392.533 278.648 393.096C278.849 393.659 279.171 394.102 279.613 394.423C280.096 394.705 280.579 394.846 281.061 394.846H281.604V395.449H269.477V394.846C269.477 394.846 269.578 394.846 269.779 394.846C269.94 394.846 270.02 394.846 270.02 394.846C270.945 394.846 271.891 394.564 272.856 394.001C273.862 393.398 274.686 392.412 275.33 391.045H278.769ZM291.741 352.37L292.284 356.594L277.14 395.268H273.52L288.965 358.585C288.965 358.585 289.066 358.343 289.267 357.861C289.508 357.338 289.77 356.714 290.051 355.99C290.373 355.266 290.635 354.562 290.836 353.879C291.077 353.195 291.198 352.692 291.198 352.37H291.741ZM300.248 378.978V380.788H281.363V378.978H300.248ZM302.963 391.045H307.91C308.514 392.412 309.318 393.398 310.324 394.001C311.329 394.564 312.295 394.846 313.22 394.846C313.22 394.846 313.3 394.846 313.461 394.846C313.622 394.846 313.702 394.846 313.702 394.846V395.449H300.127V394.846H300.67C301.434 394.846 302.118 394.524 302.722 393.88C303.325 393.196 303.405 392.251 302.963 391.045ZM329.426 353.396V395.449H325.504V353.396H329.426ZM344.932 353.155V354.965H309.998V353.155H344.932ZM344.932 354.784V359.671L344.328 359.61V358.585C344.328 357.579 343.966 356.734 343.242 356.051C342.558 355.367 341.734 355.005 340.769 354.965V354.784H344.932ZM344.932 352.069V353.818L337.571 353.155C338.456 353.155 339.381 353.094 340.346 352.974C341.352 352.853 342.277 352.712 343.122 352.551C343.966 352.39 344.57 352.229 344.932 352.069ZM325.685 391.045V395.449H320.858V394.846C320.858 394.846 320.979 394.846 321.22 394.846C321.502 394.846 321.642 394.846 321.642 394.846C322.688 394.846 323.573 394.484 324.297 393.76C325.061 392.995 325.464 392.09 325.504 391.045H325.685ZM329.245 391.045H329.426C329.466 392.09 329.848 392.995 330.572 393.76C331.336 394.484 332.241 394.846 333.287 394.846C333.287 394.846 333.408 394.846 333.649 394.846C333.931 394.846 334.071 394.846 334.071 394.846V395.449H329.245V391.045ZM314.161 354.784V354.965C313.155 355.005 312.311 355.367 311.627 356.051C310.943 356.734 310.601 357.579 310.601 358.585V359.61L309.998 359.671V354.784H314.161ZM309.998 352.069C310.4 352.229 311.004 352.39 311.808 352.551C312.653 352.712 313.578 352.853 314.583 352.974C315.589 353.094 316.514 353.155 317.359 353.155L309.998 353.818V352.069ZM373.359 353.215V395.449H369.437V353.215H373.359ZM389.649 393.579V395.449H373.178V393.579H389.649ZM393.33 385.675L389.83 395.449H379.815L381.987 393.579C384.119 393.579 385.848 393.257 387.176 392.613C388.543 391.929 389.649 390.984 390.494 389.778C391.339 388.571 392.083 387.203 392.726 385.675H393.33ZM369.618 391.045V395.449H364.791V394.846C364.791 394.846 364.912 394.846 365.154 394.846C365.435 394.846 365.576 394.846 365.576 394.846C366.622 394.846 367.507 394.484 368.231 393.76C368.995 392.995 369.397 392.09 369.437 391.045H369.618ZM369.618 357.619H369.437C369.397 356.573 368.995 355.689 368.231 354.965C367.507 354.2 366.622 353.818 365.576 353.818C365.576 353.818 365.435 353.818 365.154 353.818C364.912 353.818 364.791 353.818 364.791 353.818V353.215H369.618V357.619ZM373.178 357.619V353.215H378.005V353.818C377.965 353.818 377.824 353.818 377.582 353.818C377.341 353.818 377.22 353.818 377.22 353.818C376.175 353.818 375.27 354.2 374.505 354.965C373.781 355.689 373.399 356.573 373.359 357.619H373.178ZM416.711 352.37L434.57 395.087H429.441L415.504 358.102L416.711 352.37ZM403.739 391.045C403.457 391.849 403.417 392.533 403.618 393.096C403.819 393.659 404.141 394.102 404.583 394.423C405.066 394.705 405.549 394.846 406.031 394.846H406.575V395.449H394.447V394.846C394.447 394.846 394.548 394.846 394.749 394.846C394.91 394.846 394.99 394.846 394.99 394.846C395.915 394.846 396.861 394.564 397.826 394.001C398.832 393.398 399.656 392.412 400.3 391.045H403.739ZM416.711 352.37L417.254 356.594L402.11 395.268H398.49L413.935 358.585C413.935 358.585 414.036 358.343 414.237 357.861C414.478 357.338 414.74 356.714 415.021 355.99C415.343 355.266 415.605 354.562 415.806 353.879C416.047 353.195 416.168 352.692 416.168 352.37H416.711ZM425.218 378.978V380.788H406.333V378.978H425.218ZM427.933 391.045H432.88C433.484 392.412 434.288 393.398 435.294 394.001C436.299 394.564 437.265 394.846 438.19 394.846C438.19 394.846 438.27 394.846 438.431 394.846C438.592 394.846 438.672 394.846 438.672 394.846V395.449H425.097V394.846H425.64C426.404 394.846 427.088 394.524 427.692 393.88C428.295 393.196 428.375 392.251 427.933 391.045ZM455.44 372.22L472.575 392.372C473.42 393.176 474.265 393.78 475.109 394.182C475.994 394.584 477.06 394.805 478.307 394.846V395.449H475.713C475.31 395.449 474.727 395.429 473.963 395.389C473.239 395.308 472.434 395.167 471.549 394.966C470.705 394.725 469.84 394.383 468.955 393.941C468.11 393.458 467.346 392.814 466.662 392.01C466.662 392.01 466.3 391.588 465.576 390.743C464.893 389.898 463.988 388.812 462.861 387.485C461.775 386.157 460.609 384.75 459.362 383.261C458.155 381.733 456.989 380.305 455.863 378.978C454.777 377.65 453.871 376.564 453.147 375.72C452.464 374.875 452.122 374.453 452.122 374.453L455.44 372.22ZM472.877 353.637L454.837 374.453H452.122L468.714 353.637H472.877ZM477.04 353.215V353.758H476.799C475.471 353.758 474.224 354.019 473.058 354.542C471.932 355.065 470.966 355.789 470.162 356.714L466.361 356.594C466.884 355.91 466.964 355.266 466.602 354.663C466.28 354.06 465.717 353.758 464.913 353.758H464.309V353.215H476.799H477.04ZM450.191 353.215V395.449H446.269V353.215H450.191ZM446.45 391.045V395.449H441.624V394.846C441.624 394.846 441.744 394.846 441.986 394.846C442.267 394.846 442.408 394.846 442.408 394.846C443.454 394.846 444.339 394.484 445.063 393.76C445.827 392.995 446.229 392.09 446.269 391.045H446.45ZM446.45 357.619H446.269C446.229 356.573 445.827 355.689 445.063 354.965C444.339 354.2 443.454 353.818 442.408 353.818C442.408 353.818 442.267 353.818 441.986 353.818C441.744 353.818 441.624 353.818 441.624 353.818V353.215H446.45V357.619ZM450.01 391.045H450.191C450.231 392.09 450.613 392.995 451.337 393.76C452.102 394.484 453.007 394.846 454.052 394.846C454.052 394.846 454.173 394.846 454.415 394.846C454.656 394.846 454.797 394.846 454.837 394.846V395.449H450.01V391.045ZM450.01 357.619V353.215H454.837V353.818C454.797 353.818 454.656 353.818 454.415 353.818C454.173 353.818 454.052 353.818 454.052 353.818C453.007 353.818 452.102 354.2 451.337 354.965C450.613 355.689 450.231 356.573 450.191 357.619H450.01ZM489.844 353.215V395.449H485.923V353.215H489.844ZM506.135 393.579V395.449H489.663V393.579H506.135ZM503.54 373.729V375.539H489.663V373.729H503.54ZM506.135 353.215V355.085H489.663V353.215H506.135ZM509.815 385.675L506.316 395.449H496.3L498.472 393.579C500.604 393.579 502.334 393.257 503.661 392.613C505.029 391.929 506.135 390.984 506.979 389.778C507.824 388.571 508.568 387.203 509.212 385.675H509.815ZM503.54 375.418V379.4H502.937V378.495C502.937 377.691 502.655 377.007 502.092 376.444C501.529 375.84 500.845 375.539 500.041 375.539V375.418H503.54ZM503.54 369.867V373.849H500.041V373.729C500.845 373.688 501.529 373.387 502.092 372.824C502.655 372.22 502.937 371.516 502.937 370.712V369.867H503.54ZM506.135 354.904V359.731H505.531V358.645C505.531 357.68 505.19 356.855 504.506 356.171C503.822 355.447 502.977 355.065 501.972 355.025V354.904H506.135ZM506.135 352.129V353.879L498.774 353.215C499.659 353.215 500.584 353.155 501.549 353.034C502.555 352.913 503.48 352.772 504.325 352.612C505.169 352.451 505.773 352.29 506.135 352.129ZM486.104 391.045V395.449H481.277V394.846C481.277 394.846 481.398 394.846 481.639 394.846C481.921 394.846 482.061 394.846 482.061 394.846C483.107 394.846 483.992 394.484 484.716 393.76C485.48 392.995 485.883 392.09 485.923 391.045H486.104ZM486.104 357.619H485.923C485.923 356.573 485.541 355.689 484.776 354.965C484.012 354.2 483.107 353.818 482.061 353.818C482.061 353.818 481.941 353.818 481.699 353.818C481.458 353.818 481.337 353.818 481.337 353.818L481.277 353.215H486.104V357.619ZM527.623 352.37C528.266 352.37 528.95 352.41 529.674 352.491C530.438 352.571 531.162 352.692 531.846 352.853C532.57 352.974 533.214 353.114 533.777 353.275C534.38 353.396 534.843 353.537 535.165 353.698V360.395H534.622C534.622 358.464 533.958 356.956 532.631 355.87C531.303 354.743 529.694 354.18 527.804 354.18C525.592 354.18 523.802 354.884 522.434 356.292C521.066 357.66 520.383 359.268 520.383 361.119C520.383 361.883 520.544 362.788 520.865 363.834C521.227 364.839 521.871 365.785 522.796 366.669L534.682 377.65C535.889 378.777 536.693 379.983 537.095 381.27C537.498 382.558 537.699 383.804 537.699 385.011C537.699 388.35 536.673 391.065 534.622 393.156C532.61 395.248 529.875 396.294 526.416 396.294C525.451 396.294 524.304 396.193 522.977 395.992C521.69 395.791 520.423 395.449 519.176 394.966C517.969 394.443 516.964 393.78 516.159 392.975C516.039 392.332 515.978 391.527 515.978 390.562C515.978 389.597 516.059 388.591 516.22 387.545C516.38 386.459 516.602 385.474 516.883 384.589H517.426C517.225 386.64 517.487 388.43 518.211 389.959C518.935 391.487 519.98 392.653 521.348 393.458C522.756 394.222 524.345 394.564 526.114 394.484C528.327 394.363 530.217 393.599 531.786 392.191C533.395 390.743 534.199 388.812 534.199 386.399C534.199 385.232 533.998 384.187 533.596 383.261C533.194 382.296 532.61 381.472 531.846 380.788L520.262 370.048C519.055 368.922 518.211 367.695 517.728 366.368C517.245 365 517.004 363.733 517.004 362.567C517.004 360.877 517.406 359.248 518.211 357.68C519.015 356.111 520.202 354.844 521.77 353.879C523.379 352.873 525.33 352.37 527.623 352.37ZM535.165 352.974V354.241H530.579V352.974H535.165Z" fill="white"/>
<rect x="34" y="432" width="624" height="221" fill="white"/>
<path d="M110.682 461.715V514H105.827V461.715H110.682ZM75.2776 461.715V514H70.4225V461.715H75.2776ZM106.499 487.036V489.277H74.5306V487.036H106.499ZM70.6466 508.547V514H64.6712V513.253C64.6712 513.253 64.8205 513.253 65.1193 513.253C65.4679 513.253 65.6422 513.253 65.6422 513.253C66.9369 513.253 68.0323 512.805 68.9287 511.909C69.8748 510.962 70.3727 509.842 70.4225 508.547H70.6466ZM70.6466 467.167H70.4225C70.3727 465.873 69.8748 464.777 68.9287 463.881C68.0323 462.935 66.9369 462.462 65.6422 462.462C65.6422 462.462 65.4679 462.462 65.1193 462.462C64.8205 462.462 64.6712 462.462 64.6712 462.462V461.715H70.6466V467.167ZM75.0535 508.547H75.2776C75.3274 509.842 75.8004 510.962 76.6967 511.909C77.6429 512.805 78.7633 513.253 80.0579 513.253C80.0579 513.253 80.2073 513.253 80.5061 513.253C80.8049 513.253 80.9792 513.253 81.0289 513.253V514H75.0535V508.547ZM75.0535 467.167V461.715H81.0289V462.462C80.9792 462.462 80.8049 462.462 80.5061 462.462C80.2073 462.462 80.0579 462.462 80.0579 462.462C78.7633 462.462 77.6429 462.935 76.6967 463.881C75.8004 464.777 75.3274 465.873 75.2776 467.167H75.0535ZM106.051 508.547V514H100.076V513.253C100.125 513.253 100.3 513.253 100.599 513.253C100.897 513.253 101.047 513.253 101.047 513.253C102.341 513.253 103.462 512.805 104.408 511.909C105.354 510.962 105.827 509.842 105.827 508.547H106.051ZM106.051 467.167H105.827C105.827 465.873 105.354 464.777 104.408 463.881C103.462 462.935 102.341 462.462 101.047 462.462C101.047 462.462 100.897 462.462 100.599 462.462C100.3 462.462 100.125 462.462 100.076 462.462V461.715H106.051V467.167ZM110.458 508.547H110.682C110.732 509.842 111.205 510.962 112.101 511.909C113.047 512.805 114.168 513.253 115.462 513.253C115.462 513.253 115.612 513.253 115.911 513.253C116.259 513.253 116.433 513.253 116.433 513.253V514H110.458V508.547ZM110.458 467.167V461.715H116.433V462.462C116.433 462.462 116.259 462.462 115.911 462.462C115.612 462.462 115.462 462.462 115.462 462.462C114.168 462.462 113.047 462.935 112.101 463.881C111.205 464.777 110.732 465.873 110.682 467.167H110.458ZM162.704 460.669L184.813 513.552H178.464L161.21 467.765L162.704 460.669ZM146.645 508.547C146.296 509.543 146.247 510.39 146.496 511.087C146.745 511.784 147.143 512.332 147.691 512.73C148.288 513.079 148.886 513.253 149.483 513.253H150.156V514H135.142V513.253C135.142 513.253 135.267 513.253 135.516 513.253C135.715 513.253 135.815 513.253 135.815 513.253C136.96 513.253 138.13 512.905 139.325 512.207C140.57 511.46 141.591 510.24 142.388 508.547H146.645ZM162.704 460.669L163.376 465.898L144.628 513.776H140.147L159.268 468.363C159.268 468.363 159.393 468.064 159.642 467.466C159.94 466.819 160.264 466.047 160.613 465.151C161.011 464.254 161.335 463.383 161.584 462.536C161.882 461.69 162.032 461.068 162.032 460.669H162.704ZM173.236 493.609V495.85H149.857V493.609H173.236ZM176.597 508.547H182.722C183.469 510.24 184.465 511.46 185.71 512.207C186.954 512.905 188.15 513.253 189.295 513.253C189.295 513.253 189.394 513.253 189.594 513.253C189.793 513.253 189.892 513.253 189.892 513.253V514H173.086V513.253H173.759C174.705 513.253 175.551 512.855 176.298 512.058C177.045 511.211 177.145 510.041 176.597 508.547ZM213.414 460.594L256.811 506.904L257.483 515.046L214.086 468.811L213.414 460.594ZM213.564 508.697V514H207.364V513.253C207.364 513.253 207.588 513.253 208.036 513.253C208.485 513.253 208.733 513.253 208.783 513.253C210.028 513.253 211.099 512.805 211.995 511.909C212.891 511.012 213.34 509.942 213.34 508.697H213.564ZM216.775 508.697C216.775 509.942 217.224 511.012 218.12 511.909C219.016 512.805 220.087 513.253 221.332 513.253C221.382 513.253 221.63 513.253 222.079 513.253C222.527 513.253 222.751 513.253 222.751 513.253V514H216.551V508.697H216.775ZM213.414 460.594L216.701 464.777L216.775 514H213.34V469.931C213.34 467.392 213.215 465.201 212.966 463.358C212.767 461.516 212.667 460.594 212.667 460.594H213.414ZM257.483 461.715V505.485C257.483 507.078 257.533 508.622 257.633 510.116C257.732 511.56 257.832 512.755 257.931 513.701C258.081 514.598 258.155 515.046 258.155 515.046H257.483L254.122 511.087V461.715H257.483ZM263.459 461.715V462.462C263.459 462.462 263.235 462.462 262.786 462.462C262.338 462.462 262.114 462.462 262.114 462.462C260.869 462.462 259.799 462.91 258.902 463.806C258.006 464.653 257.533 465.723 257.483 467.018H257.259V461.715H263.459ZM248.072 461.715H254.271V467.018H254.122C254.072 465.723 253.599 464.653 252.703 463.806C251.856 462.91 250.786 462.462 249.491 462.462C249.491 462.462 249.267 462.462 248.819 462.462C248.371 462.462 248.122 462.462 248.072 462.462V461.715ZM310.818 461.715C316.146 461.715 320.802 462.81 324.786 465.001C328.819 467.143 331.956 470.18 334.197 474.114C336.488 478.048 337.633 482.629 337.633 487.857C337.633 493.086 336.488 497.667 334.197 501.601C331.956 505.485 328.819 508.523 324.786 510.714C320.802 512.905 316.146 514 310.818 514H294.834L294.759 511.759C294.759 511.759 295.282 511.759 296.328 511.759C297.423 511.759 298.768 511.759 300.361 511.759C302.004 511.759 303.623 511.759 305.216 511.759C306.81 511.759 308.129 511.759 309.175 511.759C310.27 511.759 310.818 511.759 310.818 511.759C315.101 511.759 318.81 510.763 321.947 508.771C325.134 506.78 327.599 503.991 329.342 500.406C331.135 496.821 332.031 492.638 332.031 487.857C332.031 483.077 331.135 478.894 329.342 475.309C327.599 471.724 325.134 468.935 321.947 466.943C318.76 464.952 315.051 463.956 310.818 463.956C310.818 463.956 310.245 463.956 309.1 463.956C308.005 463.956 306.61 463.956 304.917 463.956C303.274 463.956 301.606 463.956 299.913 463.956C298.27 463.956 296.875 463.956 295.73 463.956C294.585 463.956 294.012 463.956 294.012 463.956V461.715H310.818ZM296.104 461.715V514H291.249V461.715H296.104ZM291.473 508.547V514H285.497V513.253C285.497 513.253 285.647 513.253 285.945 513.253C286.294 513.253 286.468 513.253 286.468 513.253C287.763 513.253 288.858 512.805 289.755 511.909C290.701 510.962 291.199 509.842 291.249 508.547H291.473ZM291.473 467.167H291.249C291.249 465.873 290.775 464.777 289.829 463.881C288.883 462.935 287.763 462.462 286.468 462.462C286.468 462.462 286.319 462.462 286.02 462.462C285.721 462.462 285.572 462.462 285.572 462.462L285.497 461.715H291.473V467.167ZM364.783 461.79L379.423 489.053L376.211 491.667L358.359 461.79H364.783ZM380.468 489.949V514H375.613V489.949H380.468ZM393.764 461.79H398.32L379.945 491.517L377.256 490.696L393.764 461.79ZM390.701 467.093C391.149 466.396 391.274 465.698 391.075 465.001C390.875 464.254 390.502 463.657 389.954 463.209C389.407 462.711 388.784 462.462 388.087 462.462C388.087 462.462 387.938 462.462 387.639 462.462C387.34 462.462 387.191 462.462 387.191 462.462V461.715H403.772V462.462H402.727C401.183 462.462 399.739 462.91 398.395 463.806C397.05 464.703 395.98 465.723 395.183 466.869L390.701 467.093ZM367.621 467.093L361.347 466.869C360.65 465.723 359.629 464.703 358.284 463.806C356.94 462.91 355.471 462.462 353.878 462.462H352.832V461.715H371.206V462.462C371.206 462.462 371.032 462.462 370.683 462.462C370.385 462.462 370.235 462.462 370.235 462.462C369.14 462.462 368.293 462.985 367.696 464.03C367.148 465.026 367.123 466.047 367.621 467.093ZM375.763 508.547V514H369.862V513.253C369.862 513.253 370.011 513.253 370.31 513.253C370.609 513.253 370.783 513.253 370.833 513.253C372.128 513.253 373.223 512.805 374.119 511.909C375.065 510.962 375.563 509.842 375.613 508.547H375.763ZM380.244 508.547H380.468C380.468 509.842 380.941 510.962 381.887 511.909C382.834 512.805 383.954 513.253 385.249 513.253C385.249 513.253 385.398 513.253 385.697 513.253C385.996 513.253 386.145 513.253 386.145 513.253V514H380.244V508.547ZM471.788 460.669L472.386 465.674L453.638 507.427C453.638 507.427 453.439 507.85 453.04 508.697C452.692 509.543 452.318 510.564 451.92 511.759C451.521 512.905 451.248 514 451.098 515.046H450.351L449.306 510.34L471.788 460.669ZM425.852 508.547V514H417.561V513.253C417.611 513.253 417.81 513.253 418.158 513.253C418.557 513.253 418.756 513.253 418.756 513.253C420.101 513.253 421.296 512.855 422.341 512.058C423.387 511.211 424.009 510.041 424.209 508.547H425.852ZM428.018 509.742C428.018 509.792 428.018 509.842 428.018 509.892C428.018 509.942 428.018 510.016 428.018 510.116C428.018 510.913 428.292 511.66 428.84 512.357C429.437 513.004 430.134 513.328 430.931 513.328H432.051V514H427.495V509.742H428.018ZM429.811 460.669H430.558L432.051 465.076L427.645 514H423.611L429.811 460.669ZM430.558 460.669L452.069 507.203L450.351 515.046L429.138 469.035L430.558 460.669ZM472.46 460.669L478.884 514H473.058L468.95 468.736L471.788 460.669H472.46ZM476.643 508.547H478.212C478.461 510.041 479.108 511.211 480.154 512.058C481.199 512.855 482.37 513.253 483.664 513.253C483.664 513.253 483.864 513.253 484.262 513.253C484.66 513.253 484.859 513.253 484.859 513.253V514H476.643V508.547ZM472.684 509.742H473.207V514H468.651V513.328H469.771C470.618 513.328 471.315 513.004 471.863 512.357C472.411 511.66 472.684 510.913 472.684 510.116C472.684 510.016 472.684 509.942 472.684 509.892C472.684 509.842 472.684 509.792 472.684 509.742ZM527.708 460.669L549.817 513.552H543.468L526.214 467.765L527.708 460.669ZM511.649 508.547C511.301 509.543 511.251 510.39 511.5 511.087C511.749 511.784 512.147 512.332 512.695 512.73C513.292 513.079 513.89 513.253 514.487 513.253H515.16V514H500.146V513.253C500.146 513.253 500.271 513.253 500.52 513.253C500.719 513.253 500.819 513.253 500.819 513.253C501.964 513.253 503.134 512.905 504.329 512.207C505.574 511.46 506.595 510.24 507.392 508.547H511.649ZM527.708 460.669L528.38 465.898L509.632 513.776H505.151L524.272 468.363C524.272 468.363 524.397 468.064 524.646 467.466C524.944 466.819 525.268 466.047 525.617 465.151C526.015 464.254 526.339 463.383 526.588 462.536C526.887 461.69 527.036 461.068 527.036 460.669H527.708ZM538.24 493.609V495.85H514.861V493.609H538.24ZM541.601 508.547H547.726C548.473 510.24 549.469 511.46 550.714 512.207C551.958 512.905 553.154 513.253 554.299 513.253C554.299 513.253 554.398 513.253 554.598 513.253C554.797 513.253 554.896 513.253 554.896 513.253V514H538.09V513.253H538.763C539.709 513.253 540.555 512.855 541.302 512.058C542.049 511.211 542.149 510.041 541.601 508.547ZM578.418 460.594L621.815 506.904L622.487 515.046L579.091 468.811L578.418 460.594ZM578.568 508.697V514H572.368V513.253C572.368 513.253 572.592 513.253 573.04 513.253C573.489 513.253 573.738 513.253 573.787 513.253C575.032 513.253 576.103 512.805 576.999 511.909C577.895 511.012 578.344 509.942 578.344 508.697H578.568ZM581.78 508.697C581.78 509.942 582.228 511.012 583.124 511.909C584.02 512.805 585.091 513.253 586.336 513.253C586.386 513.253 586.635 513.253 587.083 513.253C587.531 513.253 587.755 513.253 587.755 513.253V514H581.555V508.697H581.78ZM578.418 460.594L581.705 464.777L581.78 514H578.344V469.931C578.344 467.392 578.219 465.201 577.97 463.358C577.771 461.516 577.671 460.594 577.671 460.594H578.418ZM622.487 461.715V505.485C622.487 507.078 622.537 508.622 622.637 510.116C622.736 511.56 622.836 512.755 622.935 513.701C623.085 514.598 623.159 515.046 623.159 515.046H622.487L619.126 511.087V461.715H622.487ZM628.463 461.715V462.462C628.463 462.462 628.239 462.462 627.79 462.462C627.342 462.462 627.118 462.462 627.118 462.462C625.873 462.462 624.803 462.91 623.906 463.806C623.01 464.653 622.537 465.723 622.487 467.018H622.263V461.715H628.463ZM613.076 461.715H619.275V467.018H619.126C619.076 465.723 618.603 464.653 617.707 463.806C616.86 462.91 615.79 462.462 614.495 462.462C614.495 462.462 614.271 462.462 613.823 462.462C613.375 462.462 613.126 462.462 613.076 462.462V461.715ZM152.062 561.669C152.859 561.669 153.706 561.719 154.602 561.819C155.548 561.918 156.444 562.068 157.291 562.267C158.187 562.416 158.984 562.59 159.681 562.79C160.428 562.939 161.001 563.113 161.399 563.312V571.603H160.727C160.727 569.213 159.905 567.346 158.262 566.001C156.619 564.607 154.627 563.91 152.286 563.91C149.548 563.91 147.332 564.781 145.639 566.524C143.946 568.217 143.099 570.209 143.099 572.5C143.099 573.446 143.298 574.566 143.697 575.861C144.145 577.106 144.942 578.276 146.087 579.371L160.801 592.966C162.295 594.36 163.291 595.854 163.789 597.447C164.287 599.041 164.536 600.584 164.536 602.078C164.536 606.211 163.266 609.572 160.727 612.162C158.237 614.751 154.851 616.046 150.568 616.046C149.373 616.046 147.954 615.921 146.311 615.672C144.718 615.423 143.149 615 141.605 614.402C140.111 613.755 138.867 612.933 137.871 611.938C137.721 611.141 137.647 610.145 137.647 608.95C137.647 607.755 137.746 606.51 137.945 605.215C138.145 603.871 138.418 602.651 138.767 601.555H139.439C139.19 604.095 139.514 606.311 140.41 608.203C141.307 610.095 142.601 611.539 144.294 612.535C146.037 613.481 148.004 613.905 150.195 613.805C152.934 613.656 155.274 612.709 157.216 610.967C159.208 609.174 160.204 606.784 160.204 603.796C160.204 602.352 159.955 601.057 159.457 599.912C158.959 598.717 158.237 597.696 157.291 596.85L142.95 583.554C141.456 582.16 140.41 580.641 139.813 578.998C139.215 577.305 138.916 575.736 138.916 574.292C138.916 572.201 139.414 570.184 140.41 568.242C141.406 566.3 142.875 564.732 144.817 563.536C146.809 562.292 149.224 561.669 152.062 561.669ZM161.399 562.416V563.985H155.722V562.416H161.399ZM197.969 570.184V615H193.189V570.184H197.969ZM218.062 612.685L217.912 615H197.82V612.685H218.062ZM214.551 591.472V593.712H197.82V591.472H214.551ZM217.987 570.184V572.5H197.82V570.184H217.987ZM222.245 604.319L218.137 615H206.783L209.323 612.685C211.813 612.685 213.804 612.336 215.298 611.639C216.842 610.892 218.087 609.896 219.033 608.651C219.979 607.356 220.801 605.912 221.498 604.319H222.245ZM214.551 593.563V597.821H213.73V596.85C213.73 596.003 213.481 595.281 212.983 594.683C212.485 594.036 211.713 593.712 210.667 593.712V593.563H214.551ZM214.551 587.364V591.621H210.667V591.472C211.713 591.472 212.485 591.173 212.983 590.575C213.481 589.928 213.73 589.181 213.73 588.335V587.364H214.551ZM217.987 572.276V577.429H217.166V576.309C217.166 575.263 216.817 574.367 216.12 573.62C215.472 572.873 214.576 572.5 213.431 572.5V572.276H217.987ZM217.987 568.989V570.931L209.472 570.184C211.016 570.184 212.659 570.06 214.402 569.811C216.145 569.512 217.34 569.238 217.987 568.989ZM193.338 610.22L194.309 615H187.811V614.253C187.811 614.253 187.985 614.253 188.334 614.253C188.683 614.253 188.857 614.253 188.857 614.253C190.102 614.253 191.123 613.855 191.919 613.058C192.716 612.261 193.139 611.315 193.189 610.22H193.338ZM193.338 574.89H193.189C193.139 573.745 192.716 572.798 191.919 572.051C191.123 571.305 190.102 570.931 188.857 570.931C188.857 570.931 188.683 570.931 188.334 570.931C187.985 570.931 187.811 570.931 187.811 570.931V570.184H194.309L193.338 574.89ZM251.908 570.184H261.543C263.884 570.184 265.975 570.458 267.817 571.006C269.71 571.554 271.303 572.35 272.598 573.396C273.942 574.442 274.963 575.711 275.66 577.205C276.357 578.699 276.706 580.392 276.706 582.284C276.706 584.376 276.208 586.318 275.212 588.11C274.216 589.903 272.822 591.372 271.029 592.517C269.286 593.663 267.295 594.36 265.054 594.609C265.9 594.957 266.871 595.729 267.967 596.924C269.112 598.119 270.083 599.29 270.88 600.435C270.88 600.435 271.203 600.883 271.851 601.779C272.498 602.626 273.32 603.696 274.316 604.991C275.361 606.236 276.382 607.431 277.378 608.576C278.424 609.722 279.37 610.718 280.216 611.564C281.113 612.411 282.059 613.083 283.055 613.581C284.1 614.029 285.296 614.253 286.64 614.253V615H284.325C281.586 615 279.32 614.651 277.527 613.954C275.785 613.257 274.365 612.411 273.27 611.415C272.174 610.369 271.228 609.373 270.432 608.427C270.232 608.178 269.759 607.556 269.012 606.56C268.315 605.514 267.543 604.394 266.697 603.198C265.85 602.003 265.079 600.933 264.381 599.987C263.684 598.991 263.261 598.393 263.112 598.194C262.116 596.899 260.97 595.754 259.676 594.758C258.381 593.712 257.012 593.19 255.568 593.19V592.443C255.568 592.443 255.966 592.468 256.763 592.517C257.56 592.517 258.58 592.492 259.825 592.443C261.219 592.393 262.614 592.293 264.008 592.144C265.402 591.945 266.697 591.397 267.892 590.501C269.137 589.604 270.108 588.11 270.805 586.019C271.004 585.471 271.154 584.824 271.253 584.077C271.353 583.33 271.378 582.558 271.328 581.762C271.278 580.367 271.004 579.122 270.506 578.027C270.058 576.931 269.386 575.985 268.49 575.189C267.643 574.392 266.622 573.769 265.427 573.321C264.232 572.873 262.888 572.624 261.394 572.574C259.053 572.475 257.012 572.45 255.269 572.5C253.526 572.549 252.655 572.549 252.655 572.5C252.655 572.45 252.58 572.251 252.431 571.902C252.331 571.504 252.207 571.13 252.057 570.782C251.958 570.383 251.908 570.184 251.908 570.184ZM252.804 570.184V615H248.024V570.184H252.804ZM248.248 610.22L249.144 615H242.795V614.253C242.795 614.253 242.969 614.253 243.318 614.253C243.667 614.253 243.841 614.253 243.841 614.253C245.036 614.253 246.032 613.855 246.829 613.058C247.625 612.261 248.049 611.315 248.098 610.22H248.248ZM248.248 574.89H248.098C248.049 573.745 247.625 572.798 246.829 572.051C246.032 571.305 245.036 570.931 243.841 570.931C243.841 570.931 243.667 570.931 243.318 570.931C242.969 570.931 242.795 570.931 242.795 570.931V570.184H249.144L248.248 574.89ZM252.58 610.22H252.804C252.854 611.315 253.277 612.261 254.074 613.058C254.871 613.855 255.866 614.253 257.062 614.253C257.062 614.253 257.211 614.253 257.51 614.253C257.858 614.253 258.033 614.253 258.033 614.253L258.107 615H251.684L252.58 610.22ZM321.889 616.046L301.348 570.632H307.249L323.159 609.398L321.889 616.046ZM321.889 616.046L321.366 610.892L338.471 570.408H343.176L325.474 608.352C325.474 608.352 325.325 608.651 325.026 609.249C324.777 609.846 324.453 610.593 324.055 611.489C323.706 612.336 323.383 613.182 323.084 614.029C322.785 614.876 322.611 615.548 322.561 616.046H321.889ZM336.304 575.637C336.852 574.143 336.778 572.998 336.08 572.201C335.383 571.354 334.587 570.931 333.69 570.931H333.167V570.184H347.359V570.931C347.359 570.931 347.259 570.931 347.06 570.931C346.861 570.931 346.762 570.931 346.762 570.931C345.716 570.931 344.645 571.305 343.55 572.051C342.454 572.749 341.508 573.944 340.711 575.637H336.304ZM309.266 575.637H303.589C302.842 573.944 301.921 572.749 300.825 572.051C299.73 571.305 298.684 570.931 297.688 570.931C297.688 570.931 297.589 570.931 297.389 570.931C297.19 570.931 297.091 570.931 297.091 570.931V570.184H312.403V570.931H311.805C310.959 570.931 310.187 571.354 309.49 572.201C308.842 572.998 308.768 574.143 309.266 575.637ZM376.869 570.184V615H372.164V570.184H376.869ZM372.388 610.22V615H366.039V614.253C366.039 614.253 366.213 614.253 366.562 614.253C366.91 614.253 367.084 614.253 367.084 614.253C368.479 614.253 369.649 613.855 370.595 613.058C371.591 612.261 372.114 611.315 372.164 610.22H372.388ZM376.645 610.22H376.869C376.919 611.315 377.417 612.261 378.363 613.058C379.359 613.855 380.554 614.253 381.948 614.253C381.948 614.253 382.098 614.253 382.397 614.253C382.745 614.253 382.919 614.253 382.919 614.253L382.994 615H376.645V610.22ZM376.645 574.965V570.184H382.994L382.919 570.931C382.919 570.931 382.745 570.931 382.397 570.931C382.098 570.931 381.948 570.931 381.948 570.931C380.554 570.931 379.359 571.329 378.363 572.126C377.417 572.873 376.919 573.819 376.869 574.965H376.645ZM372.388 574.965H372.164C372.114 573.819 371.591 572.873 370.595 572.126C369.649 571.329 368.479 570.931 367.084 570.931C367.035 570.931 366.835 570.931 366.487 570.931C366.188 570.931 366.039 570.931 366.039 570.931V570.184H372.388V574.965ZM450.613 596.177L449.791 606.41C448.497 608.402 446.804 610.12 444.712 611.564C442.621 613.008 440.255 614.129 437.616 614.925C434.977 615.672 432.189 616.046 429.251 616.046C424.221 615.996 419.839 615.025 416.105 613.133C412.42 611.24 409.582 608.551 407.59 605.066C405.598 601.58 404.602 597.422 404.602 592.592C404.602 587.712 405.598 583.529 407.59 580.044C409.582 576.558 412.42 573.869 416.105 571.977C419.839 570.085 424.221 569.138 429.251 569.138C432.338 569.138 435.45 569.537 438.587 570.334C441.724 571.13 444.438 572.251 446.729 573.695L448.372 584.226H447.7C446.604 579.645 444.388 576.359 441.052 574.367C437.766 572.375 433.807 571.379 429.176 571.379C425.242 571.379 421.831 572.251 418.943 573.993C416.105 575.687 413.889 578.127 412.295 581.313C410.752 584.451 409.98 588.21 409.98 592.592C409.98 596.874 410.752 600.609 412.295 603.796C413.889 606.933 416.13 609.373 419.018 611.116C421.906 612.809 425.317 613.68 429.251 613.73C432.985 613.73 436.347 613.133 439.334 611.938C442.372 610.693 444.837 608.776 446.729 606.186C448.621 603.597 449.692 600.261 449.941 596.177H450.613ZM482.737 570.184V615H477.956V570.184H482.737ZM502.829 612.685L502.68 615H482.587V612.685H502.829ZM499.319 591.472V593.712H482.587V591.472H499.319ZM502.755 570.184V572.5H482.587V570.184H502.755ZM507.012 604.319L502.904 615H491.551L494.09 612.685C496.58 612.685 498.572 612.336 500.066 611.639C501.609 610.892 502.854 609.896 503.8 608.651C504.746 607.356 505.568 605.912 506.265 604.319H507.012ZM499.319 593.563V597.821H498.497V596.85C498.497 596.003 498.248 595.281 497.75 594.683C497.252 594.036 496.48 593.712 495.435 593.712V593.563H499.319ZM499.319 587.364V591.621H495.435V591.472C496.48 591.472 497.252 591.173 497.75 590.575C498.248 589.928 498.497 589.181 498.497 588.335V587.364H499.319ZM502.755 572.276V577.429H501.933V576.309C501.933 575.263 501.584 574.367 500.887 573.62C500.24 572.873 499.344 572.5 498.198 572.5V572.276H502.755ZM502.755 568.989V570.931L494.24 570.184C495.783 570.184 497.426 570.06 499.169 569.811C500.912 569.512 502.107 569.238 502.755 568.989ZM478.106 610.22L479.077 615H472.579V614.253C472.579 614.253 472.753 614.253 473.101 614.253C473.45 614.253 473.624 614.253 473.624 614.253C474.869 614.253 475.89 613.855 476.687 613.058C477.483 612.261 477.907 611.315 477.956 610.22H478.106ZM478.106 574.89H477.956C477.907 573.745 477.483 572.798 476.687 572.051C475.89 571.305 474.869 570.931 473.624 570.931C473.624 570.931 473.45 570.931 473.101 570.931C472.753 570.931 472.579 570.931 472.579 570.931V570.184H479.077L478.106 574.89ZM541.662 569.138C543.056 569.138 544.276 569.188 545.322 569.288C546.368 569.387 547.264 569.512 548.011 569.661C548.808 569.761 549.48 569.91 550.028 570.109C550.625 570.259 551.148 570.408 551.596 570.558L551.671 577.952H550.775C550.775 575.911 550.077 574.317 548.683 573.172C547.289 571.977 545.123 571.379 542.185 571.379C539.695 571.379 537.554 572.076 535.761 573.471C534.018 574.815 533.172 576.483 533.222 578.475C533.222 579.122 533.296 579.795 533.446 580.492C533.645 581.139 533.944 581.786 534.342 582.434C534.79 583.081 535.388 583.728 536.135 584.376L551.223 596.028C552.368 596.974 553.215 598.194 553.762 599.688C554.31 601.132 554.609 602.576 554.659 604.02C554.708 606.211 554.136 608.228 552.941 610.07C551.746 611.913 550.127 613.382 548.086 614.477C546.094 615.523 543.878 616.046 541.438 616.046C539.994 616.046 538.425 615.921 536.732 615.672C535.089 615.423 533.545 615.05 532.101 614.552C530.657 614.004 529.462 613.332 528.516 612.535C528.367 611.838 528.292 610.967 528.292 609.921C528.292 608.825 528.367 607.68 528.516 606.485C528.715 605.29 528.964 604.219 529.263 603.273H530.159C529.96 605.514 530.284 607.431 531.13 609.025C531.977 610.618 533.222 611.838 534.865 612.685C536.508 613.481 538.425 613.855 540.616 613.805C543.704 613.705 546.119 612.933 547.862 611.489C549.654 609.996 550.55 608.029 550.55 605.589C550.55 604.394 550.326 603.323 549.878 602.377C549.48 601.381 548.808 600.46 547.862 599.613L532.923 588.11C531.529 586.915 530.583 585.596 530.085 584.152C529.587 582.708 529.338 581.338 529.338 580.044C529.338 578.002 529.885 576.16 530.981 574.516C532.076 572.873 533.545 571.578 535.388 570.632C537.28 569.636 539.371 569.138 541.662 569.138ZM551.522 569.811L551.596 571.155H546.293V569.811H551.522Z" fill="black"/>
</svg>
